<?xml version="1.0" standalone="no"?>
<!DOCTYPE svg PUBLIC "-//W3C//DTD SVG 20010904//EN"
 "http://www.w3.org/TR/2001/REC-SVG-20010904/DTD/svg10.dtd">
<svg version="1.0" xmlns="http://www.w3.org/2000/svg"
 width="736.000000pt" height="843.000000pt" viewBox="0 0 736.000000 843.000000"
 preserveAspectRatio="xMidYMid meet">

<g transform="translate(0.000000,843.000000) scale(0.100000,-0.100000)"
fill="#000000" stroke="none">
<path d="M6435 7903 c-59 -8 -135 -34 -135 -46 0 -7 -25 -25 -55 -40 -50 -24
-87 -52 -147 -110 -10 -10 -16 -22 -12 -28 3 -5 -12 -40 -34 -77 -22 -37 -43
-78 -47 -92 -4 -14 -20 -53 -36 -88 -16 -35 -29 -74 -29 -88 0 -13 -9 -50 -20
-82 -19 -53 -27 -104 -65 -422 -16 -135 -22 -185 -30 -270 -3 -30 -8 -73 -11
-95 -13 -100 -16 -217 -4 -210 6 4 10 14 9 23 -1 10 -1 19 0 22 1 3 4 34 5 70
2 36 9 108 15 160 7 52 17 133 22 180 27 218 53 331 44 190 -4 -63 -3 -69 6
-40 5 19 11 54 13 77 2 23 9 49 16 58 8 10 9 15 1 15 -6 0 -11 5 -11 10 0 6 7
10 15 10 8 0 15 8 15 17 0 13 -3 14 -11 6 -12 -12 -39 -7 -39 9 0 5 8 8 17 6
15 -3 19 11 30 90 7 51 22 121 33 155 l20 62 -5 -70 c-3 -38 -7 -97 -10 -130
l-5 -60 14 42 c7 23 17 68 21 100 11 99 15 116 39 187 17 49 30 72 45 78 12 4
21 13 21 19 0 8 -4 8 -15 -1 -40 -33 7 42 64 103 19 20 39 37 45 37 5 0 -1
-11 -14 -25 -45 -48 -12 -35 40 15 29 28 67 58 84 66 17 8 49 25 70 39 69 41
204 53 304 25 19 -5 38 -7 42 -5 5 3 26 -2 48 -9 33 -12 40 -12 36 -1 -5 11
-110 65 -128 65 -4 0 -19 9 -34 20 -40 29 -151 44 -237 33z m91 -42 c-3 -5
-27 -12 -53 -15 -46 -7 -168 -51 -187 -68 -6 -4 -17 -8 -26 -8 -8 0 -24 -10
-35 -22 -13 -16 -20 -18 -23 -9 -8 24 39 59 121 89 45 17 91 33 102 35 38 9
106 7 101 -2z m72 2 c-10 -2 -28 -2 -40 0 -13 2 -5 4 17 4 22 1 32 -1 23 -4z
m65 -4 c-8 -8 -16 -8 -30 0 -16 9 -14 10 12 11 21 0 26 -3 18 -11z m-453 -163
c0 -2 -7 -9 -15 -16 -13 -11 -14 -10 -9 4 5 14 24 23 24 12z m-71 -78 c-18
-24 -34 -45 -36 -47 -2 -2 -3 3 -3 12 0 18 47 77 62 77 5 0 -5 -19 -23 -42z
m-149 -225 c-11 -17 -11 -17 -6 0 3 10 7 26 7 35 1 15 2 15 6 0 2 -10 -1 -25
-7 -35z m31 -6 c-10 -9 -11 -8 -5 6 3 10 9 15 12 12 3 -3 0 -11 -7 -18z m-99
-249 c-5 -5 -8 2 -7 19 3 50 8 59 12 24 3 -18 0 -38 -5 -43z m-5 -140 c-3 -7
-5 -2 -5 12 0 14 2 19 5 13 2 -7 2 -19 0 -25z"/>
<path d="M6484 7725 c-72 -23 -126 -56 -175 -108 -27 -27 -49 -48 -49 -45 0
21 38 73 68 93 20 14 30 25 22 25 -9 0 -32 -16 -52 -35 -41 -41 -89 -156 -87
-213 l1 -37 9 44 c15 76 18 70 16 -32 -1 -60 2 -100 9 -105 12 -8 28 -43 25
-55 -1 -5 3 -6 8 -3 5 4 20 -8 33 -24 44 -58 78 -91 88 -85 6 3 10 1 10 -4 0
-6 5 -11 11 -11 6 0 18 -7 26 -16 15 -14 14 -15 -2 -12 -10 2 -20 -2 -22 -8
-5 -14 34 -25 62 -18 13 3 27 -1 34 -10 11 -13 8 -14 -26 -10 -28 4 -34 3 -22
-5 29 -19 142 -30 216 -22 63 8 77 13 102 40 16 17 36 31 45 31 9 0 16 3 17 8
0 4 2 16 3 28 3 22 63 83 82 84 14 0 43 67 46 105 3 51 -2 95 -10 95 -5 0 -7
-25 -6 -56 3 -67 -12 -105 -50 -135 l-28 -22 7 24 c4 13 14 30 24 37 13 10 16
29 14 92 -1 89 -24 169 -60 218 -31 41 -27 47 15 22 36 -22 72 -86 72 -130 0
-20 5 -30 15 -30 41 0 -3 110 -66 164 -128 109 -303 160 -425 121z m233 -74
c57 -28 113 -96 112 -135 l-1 -31 -11 32 c-17 45 -24 49 -32 15 -4 -21 -14
-32 -33 -38 -31 -8 -25 -8 -79 0 -34 5 -43 3 -43 -8 0 -15 -53 -32 -69 -22 -5
3 -11 -1 -15 -9 -8 -21 -28 -19 -24 3 4 24 -10 42 -27 35 -9 -3 -21 0 -29 6
-16 14 -46 4 -46 -15 0 -8 -7 -14 -16 -14 -24 0 -84 -61 -84 -85 0 -11 -5 -27
-10 -35 -8 -12 -10 -10 -11 10 -4 60 4 108 26 156 20 45 32 58 94 94 115 69
212 82 298 41z m-431 -125 c-9 -19 -16 -41 -16 -49 0 -9 -5 -19 -10 -22 -14
-9 -3 40 18 82 22 43 29 33 8 -11z m212 -68 c-4 -30 -23 -33 -23 -3 0 14 6 25
13 25 8 0 12 -9 10 -22z m232 -398 c-8 -5 -33 -9 -55 -9 -35 1 -37 2 -15 9 14
4 39 8 55 9 23 0 26 -2 15 -9z m-100 -10 c0 -5 -17 -9 -37 -9 l-38 2 35 7 c19
4 36 8 38 9 1 0 2 -3 2 -9z"/>
<path d="M6745 7560 c3 -5 11 -10 16 -10 6 0 7 5 4 10 -3 6 -11 10 -16 10 -6
0 -7 -4 -4 -10z"/>
<path d="M6715 7550 c3 -5 8 -10 11 -10 2 0 4 5 4 10 0 6 -5 10 -11 10 -5 0
-7 -4 -4 -10z"/>
<path d="M6882 7703 c27 -3 52 -17 90 -51 29 -25 42 -34 29 -19 -23 25 -19 33
12 28 5 -1 5 3 2 9 -4 6 -17 10 -29 8 -11 -1 -32 5 -46 15 -14 9 -40 16 -60
15 l-35 -1 37 -4z"/>
<path d="M7125 7563 c7 -16 18 -44 24 -63 9 -33 9 -33 4 10 -6 50 -19 80 -33
80 -5 0 -3 -12 5 -27z"/>
<path d="M7050 7546 c0 -2 11 -29 25 -60 14 -31 25 -71 24 -89 l-1 -32 -12 35
c-14 44 -24 60 -38 60 -6 0 -3 -9 6 -19 50 -55 15 -471 -39 -471 -8 0 -19 -18
-25 -42 -11 -43 -29 -104 -95 -323 -51 -169 -55 -185 -64 -228 -5 -21 -14 -44
-20 -50 -6 -6 -11 -23 -11 -38 0 -15 -4 -30 -9 -33 -5 -3 -11 -20 -14 -38 -6
-37 -6 -39 -31 -122 -10 -32 -19 -64 -21 -70 -1 -6 -6 -22 -12 -36 -6 -14 -13
-43 -17 -65 -4 -22 -19 -71 -33 -110 -13 -38 -28 -83 -33 -100 -4 -16 -24 -63
-44 -102 -20 -40 -36 -75 -36 -79 0 -3 -11 -27 -23 -53 -13 -25 -34 -77 -46
-114 -13 -37 -27 -67 -32 -67 -5 0 -9 -8 -9 -17 0 -29 -24 -83 -36 -83 -18 0
-24 -13 -40 -83 -8 -34 -20 -68 -27 -77 -21 -27 -34 -55 -42 -90 -4 -18 -21
-65 -37 -103 -17 -39 -39 -98 -49 -131 -11 -34 -33 -89 -49 -122 -25 -52 -34
-62 -61 -68 -44 -9 -58 -6 -30 5 20 8 22 14 18 39 -5 23 -2 32 13 40 14 7 20
7 20 0 0 -5 5 -10 10 -10 6 0 10 13 10 29 0 16 7 34 15 41 20 16 19 39 -2 63
-14 16 -15 19 -3 15 20 -6 55 40 54 70 -1 14 8 29 22 39 18 11 21 19 14 32 -5
10 -5 22 0 27 4 5 11 23 14 39 20 108 36 168 59 225 5 14 13 39 18 55 22 85
118 343 124 337 4 -4 5 4 2 17 -3 14 0 39 7 55 7 17 18 49 24 71 6 22 29 99
50 170 22 72 49 164 61 205 12 41 31 104 42 140 11 36 27 88 35 115 9 28 18
61 21 75 2 14 8 34 13 45 4 11 16 54 25 95 10 41 29 108 42 149 29 92 29 105
3 98 -11 -3 -20 -1 -20 4 0 5 -7 9 -15 9 -9 0 -15 -9 -15 -24 0 -41 -18 -40
-62 3 -23 23 -47 41 -55 41 -7 0 -16 7 -19 15 -8 20 -23 19 -42 -5 -10 -12
-29 -20 -47 -20 -16 0 -41 1 -54 1 -13 0 -33 5 -44 10 -29 16 -70 3 -62 -20 5
-15 -1 -21 -27 -26 -18 -4 -39 -12 -47 -19 -8 -6 -23 -11 -33 -11 -27 0 -38
-23 -25 -58 7 -22 7 -39 -2 -63 -7 -19 -10 -38 -7 -43 3 -5 -1 -14 -8 -20 -9
-7 -14 -30 -13 -57 0 -25 -5 -50 -11 -56 -17 -17 -15 -45 4 -56 13 -7 14 -13
5 -31 -7 -11 -10 -21 -7 -21 2 0 -2 -20 -10 -45 -7 -25 -11 -45 -8 -45 3 0 -2
-7 -10 -16 -20 -19 -21 -38 -2 -31 21 8 15 -81 -5 -97 -29 -21 -32 -49 -7 -67
l23 -18 -23 -30 c-15 -21 -20 -39 -17 -54 7 -26 -17 -53 -36 -42 -8 5 -9 1 -3
-16 8 -26 12 -116 6 -136 -2 -7 -10 -13 -17 -13 -9 0 -12 -11 -8 -40 5 -32 3
-40 -10 -40 -15 0 -14 -5 2 -42 18 -43 13 -81 -13 -99 -5 -4 -6 -22 -4 -40 3
-21 -1 -43 -10 -57 -19 -29 -26 -210 -9 -230 8 -11 5 -18 -13 -32 -21 -16 -23
-25 -21 -74 2 -38 -2 -61 -12 -70 -10 -10 -13 -32 -11 -76 3 -45 0 -66 -11
-77 -15 -14 -19 -32 -16 -65 1 -10 -2 -18 -7 -18 -12 0 -22 -49 -12 -55 15
-10 17 -66 2 -74 -11 -6 -12 -13 -3 -29 13 -25 14 -42 2 -42 -5 0 -8 6 -7 13
0 6 -3 12 -9 12 -5 0 -10 -12 -10 -26 0 -29 -18 -29 -31 -1 -10 21 -11 30 -13
65 -1 16 -7 27 -15 27 -17 0 -20 116 -6 270 20 223 30 400 34 620 1 64 6 122
11 129 5 10 4 12 -3 7 -11 -7 -18 15 -12 39 1 6 4 48 6 95 2 47 8 117 14 155
15 98 20 143 24 195 2 25 11 86 19 135 25 143 37 231 37 270 0 20 5 45 10 56
7 13 7 19 0 19 -15 0 -13 41 11 205 11 80 19 158 17 173 l-4 27 -11 -27 c-7
-14 -14 -43 -16 -65 -14 -115 -20 -152 -26 -149 -3 2 -6 -32 -6 -76 0 -44 -3
-108 -8 -142 -8 -63 -13 -104 -21 -215 -3 -35 -8 -72 -11 -83 -4 -10 -8 -49
-10 -86 -2 -37 -10 -125 -19 -197 -8 -71 -18 -175 -21 -230 -4 -55 -11 -131
-17 -170 -6 -38 -12 -119 -14 -180 -3 -108 -9 -218 -19 -365 -3 -41 -8 -133
-11 -205 -3 -71 -8 -133 -11 -138 -3 -5 -12 -6 -19 -3 -12 5 -13 -1 -7 -32 11
-49 8 -123 -6 -202 -6 -36 -11 -80 -11 -99 2 -73 -7 -87 -61 -101 -28 -8 -52
-18 -55 -22 -9 -14 -26 -8 -20 7 3 8 1 15 -5 15 -6 0 -13 -9 -16 -20 -3 -11
-11 -20 -19 -20 -7 0 -30 -9 -50 -21 l-38 -21 -95 41 c-53 22 -125 51 -161 64
-84 32 -317 188 -442 297 -29 24 -37 50 -16 50 6 0 4 8 -7 20 -12 13 -15 27
-11 44 3 14 2 28 -4 31 -5 3 -10 18 -9 33 l1 27 8 -25 c7 -23 8 -23 9 -3 1 12
-3 24 -8 27 -5 3 -7 14 -4 24 2 10 -10 62 -27 117 -18 54 -36 125 -40 158 -5
32 -16 64 -24 70 -16 13 -76 137 -76 159 0 48 -197 311 -271 361 -58 39 -59
40 -52 20 4 -10 -14 2 -40 27 -25 25 -52 45 -59 45 -7 0 -13 7 -13 15 0 8 -7
15 -15 15 -24 0 -80 27 -75 36 6 9 -35 35 -48 31 -5 -1 -25 7 -45 19 l-37 21
35 -31 c19 -16 70 -49 114 -73 70 -38 215 -162 203 -174 -8 -9 -37 8 -37 22 0
16 -16 19 -25 4 -8 -13 -45 6 -45 23 0 18 -66 67 -89 67 -22 0 -63 38 -55 51
3 5 -7 4 -22 -1 -26 -10 -99 5 -146 30 -10 5 -24 7 -33 4 -14 -6 -14 -8 1 -25
14 -16 15 -19 2 -19 -8 0 -23 -9 -33 -20 -10 -11 -23 -20 -29 -20 -14 0 -66
48 -66 60 0 6 -5 10 -11 10 -6 0 -9 -7 -5 -15 3 -8 3 -15 0 -15 -2 0 -8 10
-13 23 -6 15 -23 27 -48 35 -22 6 -50 23 -63 37 -13 14 -30 25 -38 25 -8 0
-20 6 -26 14 -13 18 -140 66 -170 66 -18 -1 -16 -3 9 -15 17 -8 21 -13 10 -11
-11 2 -41 7 -67 11 -49 6 -66 24 -25 26 21 1 21 1 -3 8 -16 5 -29 3 -35 -6 -8
-10 -19 -11 -48 -2 -46 12 -40 29 8 22 21 -3 35 0 35 6 0 6 -19 11 -45 11 -25
0 -45 4 -45 9 0 13 26 21 52 15 13 -2 66 -11 118 -19 125 -20 292 -55 305 -64
6 -4 39 -18 74 -30 70 -25 219 -95 234 -110 5 -5 15 -7 22 -4 18 6 57 -15 50
-28 -8 -12 6 -11 25 1 12 7 7 12 -23 25 -20 8 -37 19 -37 24 0 5 -15 11 -33
14 -18 3 -64 20 -102 39 -39 18 -88 39 -110 47 -22 7 -56 20 -75 28 -19 8 -44
19 -55 23 -11 5 -53 18 -94 29 -40 11 -76 23 -79 26 -3 3 17 6 44 6 43 1 45 2
19 9 -16 4 -55 8 -86 9 -31 0 -59 4 -63 8 -4 4 -22 6 -40 5 -18 -2 -70 4 -116
12 -145 28 -441 18 -680 -23 -82 -14 -106 -20 -210 -53 -377 -121 -768 -438
-924 -750 -62 -124 -89 -223 -106 -383 -11 -93 -24 -179 -50 -315 -13 -67 -17
-102 -25 -202 -4 -49 -11 -78 -18 -78 -7 0 -28 10 -47 21 -21 13 -30 15 -22 6
7 -8 26 -20 41 -27 19 -7 31 -21 34 -39 6 -30 -1 -71 -12 -71 -15 0 -120 78
-166 124 -149 149 -336 487 -352 636 -3 33 -10 63 -14 66 -5 3 -9 24 -10 47
l0 42 -14 -43 c-38 -122 -38 -339 0 -472 9 -30 20 -71 25 -90 18 -69 72 -197
122 -290 62 -115 134 -213 222 -300 l66 -64 -5 -56 c-6 -61 -4 -60 21 23 9 31
21 57 25 57 12 0 11 -14 -2 -27 -8 -8 -4 -15 12 -26 18 -13 21 -22 16 -58 -3
-23 -11 -45 -17 -49 -15 -9 -50 -1 -50 12 0 5 -8 7 -18 4 -25 -8 -268 77 -362
126 -41 22 -70 35 -65 30 48 -42 105 -82 118 -82 9 0 57 -18 107 -40 50 -22
111 -45 135 -51 40 -10 45 -14 45 -40 0 -26 -2 -28 -24 -19 -45 17 -291 141
-306 154 -8 8 -38 25 -67 40 -71 35 -210 130 -256 174 -20 20 -37 45 -37 57 0
11 -12 31 -26 44 -21 20 -25 31 -20 55 4 22 3 27 -4 16 -7 -12 -11 -8 -16 18
-9 45 -24 40 -17 -5 6 -39 29 -98 57 -143 9 -14 23 -50 31 -81 28 -100 209
-373 272 -410 16 -9 27 -22 25 -28 -1 -6 10 -16 25 -22 16 -6 44 -25 63 -43
19 -18 52 -45 72 -60 21 -16 36 -33 35 -38 -1 -6 4 -13 12 -16 9 -3 11 0 6 8
-5 9 -4 11 4 6 6 -4 9 -11 6 -16 -3 -5 9 -16 27 -25 l33 -16 -25 21 c-17 14
-2 10 48 -15 39 -19 72 -39 72 -43 0 -9 61 -45 79 -46 9 -1 21 -26 32 -71 10
-38 25 -87 33 -107 26 -60 22 -68 -28 -68 -66 0 -195 20 -241 37 -63 23 -84
26 -52 8 44 -25 25 -29 -52 -10 -52 12 -76 24 -96 47 -27 30 -49 32 -24 2 12
-15 11 -16 -11 -9 -51 15 -163 81 -186 108 -13 16 -24 39 -24 53 0 13 -4 24
-9 24 -6 0 -12 12 -14 28 -2 15 -3 11 -2 -8 2 -19 7 -44 11 -54 6 -16 4 -18
-12 -12 -14 5 -10 -2 12 -26 17 -18 36 -42 42 -53 6 -11 12 -14 12 -7 0 8 7 6
21 -7 12 -11 27 -17 35 -14 8 3 14 0 14 -6 0 -6 -5 -11 -12 -11 -6 0 -3 -10 8
-21 19 -22 19 -22 -4 -10 -38 20 178 -193 233 -231 91 -61 367 -170 525 -208
19 -4 60 -15 89 -23 30 -8 70 -13 88 -10 21 4 33 2 33 -6 0 -6 8 -11 18 -11 9
0 25 -7 35 -14 16 -12 16 -14 1 -20 -8 -3 -25 -4 -37 -1 -12 3 -35 1 -52 -3
-29 -9 -29 -9 17 -16 26 -4 64 -2 86 3 53 15 144 10 150 -8 3 -10 0 -11 -9 -5
-12 7 -12 5 0 -9 16 -20 7 -67 -13 -67 -8 0 -17 -8 -20 -17 -4 -10 -15 -34
-26 -53 -10 -19 -28 -66 -40 -105 -48 -159 -148 -393 -175 -408 -8 -4 -15 -15
-15 -24 0 -8 -13 -41 -30 -72 -16 -31 -40 -89 -54 -129 -22 -67 -23 -72 -6
-67 11 3 20 -1 24 -11 4 -12 2 -15 -9 -10 -11 4 -15 -1 -15 -18 0 -24 17 -36
50 -36 11 0 24 -8 29 -19 12 -21 5 -32 -13 -25 -17 7 -40 -22 -32 -41 3 -9 14
-18 23 -21 10 -3 29 -11 42 -17 20 -10 26 -8 43 13 11 13 17 32 15 42 -3 10
-1 16 4 12 5 -3 9 -1 9 4 0 5 11 15 25 22 13 7 27 22 31 32 3 10 46 62 96 114
63 66 116 109 175 145 49 30 88 61 93 74 5 12 45 97 89 187 81 165 90 188 71
188 -5 0 -10 -4 -10 -10 0 -5 -4 -10 -10 -10 -5 0 -10 6 -10 13 0 19 -99 81
-258 162 -46 23 -70 55 -41 55 5 0 7 -5 3 -12 -4 -6 -3 -8 4 -4 6 3 14 21 18
39 4 17 9 35 10 40 1 4 2 14 3 22 1 19 41 20 41 1 0 -8 21 -27 48 -42 26 -16
56 -34 67 -41 40 -25 181 -91 205 -96 14 -3 82 -26 153 -50 70 -25 150 -50
177 -57 28 -7 50 -16 50 -20 0 -5 -25 -21 -56 -37 -31 -15 -72 -44 -90 -63
-65 -66 -126 -139 -128 -153 -1 -8 -9 -25 -17 -38 -23 -35 -40 -69 -36 -69 3
0 23 28 46 62 40 62 86 118 98 118 3 0 -2 -11 -11 -25 -21 -32 -20 -41 2 -24
15 13 16 12 3 -3 -7 -10 -17 -15 -22 -12 -5 3 -9 0 -9 -6 0 -16 -160 -255
-171 -255 -5 0 -10 -4 -11 -10 -1 -5 -7 -30 -15 -54 -16 -53 -16 -71 -3 -71 6
0 10 4 10 10 0 26 105 219 130 240 4 3 25 32 47 65 23 34 49 67 59 75 18 14
18 14 3 -5 -22 -27 -102 -175 -97 -180 2 -2 30 40 63 93 65 107 217 267 287
303 22 11 38 23 35 25 -3 3 -17 -2 -31 -12 -15 -9 -29 -14 -32 -12 -8 9 68 49
82 44 8 -3 14 -1 14 4 0 5 18 13 40 16 58 9 62 26 6 23 -46 -3 -66 13 -24 20
13 1 26 8 31 15 4 7 10 8 15 1 4 -5 18 -10 31 -11 22 -1 23 0 6 13 -14 9 -15
13 -4 13 22 0 40 -15 37 -31 -2 -8 3 -13 11 -11 8 2 32 4 53 5 21 1 38 5 38 9
0 4 -6 8 -12 8 -26 1 26 22 65 27 61 8 86 8 140 0 26 -4 46 -3 43 1 -7 11 45
13 89 2 50 -11 140 -22 134 -15 -3 2 -30 11 -60 20 l-54 15 65 -4 c36 -2 83
-12 105 -22 54 -24 63 -27 45 -15 -29 20 -3 20 51 0 37 -14 59 -18 69 -11 10
6 24 5 43 -5 28 -14 67 -10 67 8 0 5 -7 10 -15 10 -28 3 -33 4 -40 11 -7 6 8
12 61 23 23 4 33 2 37 -9 4 -9 0 -19 -7 -23 -22 -14 -65 -138 -54 -157 6 -10
7 -21 3 -24 -4 -4 -10 -1 -12 6 -3 6 -9 12 -15 12 -6 0 -4 -7 3 -17 12 -14 12
-17 0 -21 -23 -8 -76 -60 -69 -67 7 -7 77 31 89 47 10 16 34 -45 34 -88 0 -31
3 -40 11 -33 7 5 9 19 6 31 -3 14 -1 19 6 14 17 -11 15 2 -8 39 l-20 33 35 16
c43 21 68 18 73 -8 3 -15 -1 -18 -22 -14 -20 4 -24 2 -16 -7 6 -8 8 -25 4 -42
-6 -23 -5 -26 7 -17 8 6 26 14 40 17 24 6 26 4 27 -24 0 -17 6 -36 12 -44 8
-10 6 -37 -11 -107 -23 -101 -37 -131 -71 -149 -20 -10 -21 -10 -12 2 17 21
66 198 61 223 -3 21 -4 21 -11 1 -4 -11 -12 -29 -16 -40 -5 -11 -21 -60 -36
-110 -14 -49 -32 -99 -39 -110 -18 -30 -76 -198 -70 -204 8 -8 135 -2 174 8
20 5 61 12 91 16 94 10 125 29 154 94 27 61 41 109 61 215 7 38 18 72 25 76 9
6 9 9 -1 12 -10 3 -9 10 5 29 18 23 18 19 13 -146 -6 -175 -13 -230 -48 -373
-20 -82 -20 -130 0 -56 38 141 52 213 63 322 8 79 16 122 24 122 6 0 16 15 22
33 l10 32 1 -37 c1 -21 -3 -38 -9 -38 -5 0 -10 -4 -10 -10 0 -5 3 -9 8 -7 12
4 14 -15 6 -113 -3 -52 -12 -98 -18 -102 -6 -4 -11 -15 -11 -25 -1 -40 -40
-170 -71 -234 -19 -38 -34 -73 -34 -78 0 -4 -9 -16 -21 -27 -20 -18 -52 -77
-54 -99 0 -6 -10 -25 -23 -42 -30 -42 -28 -53 3 -17 14 16 25 25 25 19 -1 -20
-39 -55 -60 -55 -12 0 -19 -4 -16 -9 4 -5 -7 -15 -23 -22 -22 -10 -27 -17 -19
-26 8 -10 0 -14 -34 -20 l-43 -7 35 -6 34 -5 -59 -63 c-32 -35 -85 -79 -117
-99 -32 -20 -56 -38 -54 -40 2 -3 33 13 67 36 38 24 66 36 70 29 7 -11 109 86
109 104 0 7 5 6 15 -2 12 -10 18 -10 30 0 8 6 19 9 24 6 5 -4 12 -2 16 4 3 5
15 10 26 10 23 0 215 43 299 67 127 36 388 125 425 145 77 42 156 106 198 161
44 58 157 216 194 271 110 166 283 567 317 736 18 86 38 131 64 141 18 7 28 6
34 -3 6 -10 10 -7 14 10 4 12 21 30 38 39 53 27 116 84 142 128 21 37 85 105
98 105 3 0 29 25 58 57 29 31 62 66 74 77 25 26 64 116 64 148 0 13 -4 29 -9
37 -6 9 -4 19 5 28 20 21 79 123 92 162 7 19 12 46 12 61 0 15 7 33 15 40 8 7
15 17 15 23 0 5 -9 2 -19 -7 -19 -17 -20 -17 -35 12 -11 22 -12 32 -3 41 8 8
8 11 -3 11 -9 0 -8 5 5 20 11 12 25 18 36 15 11 -4 22 1 28 14 6 11 23 22 39
25 15 4 33 17 39 29 32 63 43 91 47 125 2 20 10 51 16 67 17 43 14 207 -5 286
-13 54 -27 79 -63 122 -26 30 -59 61 -74 70 -29 17 -40 54 -13 43 12 -4 13 -2
4 12 -8 13 -4 35 20 95 17 43 31 85 31 95 0 9 11 38 24 65 17 35 20 47 10 47
-27 0 -14 50 67 265 27 72 49 134 49 139 0 4 6 22 14 39 7 18 33 85 56 150 37
101 60 147 60 121 0 -15 -24 -90 -32 -98 -4 -6 -8 -19 -8 -31 0 -11 -9 -37
-20 -58 -11 -20 -20 -44 -20 -52 0 -18 -33 -124 -73 -233 -16 -45 -28 -85 -25
-87 6 -6 85 213 172 475 36 107 81 240 101 295 20 55 38 110 40 121 4 25 70
197 91 234 18 33 17 17 -1 -54 -28 -108 -10 -67 39 87 26 84 55 170 63 192 25
67 122 354 154 455 16 52 42 136 58 185 16 50 47 149 69 220 70 225 121 495
93 495 -6 0 -12 -10 -12 -22 -1 -18 -2 -19 -6 -5 -3 10 1 24 7 32 16 20 4 85
-15 85 -9 0 -15 10 -16 23 -1 21 -1 21 -8 -3 -7 -24 -9 -22 -34 28 -24 45 -37
63 -37 48z m96 -336 l-15 -45 5 40 c7 49 15 74 20 60 2 -6 -2 -30 -10 -55z
m-136 -335 c0 -8 -4 -15 -10 -15 -5 0 -7 7 -4 15 4 8 8 15 10 15 2 0 4 -7 4
-15z m-183 -697 c-3 -8 -6 -5 -6 6 -1 11 2 17 5 13 3 -3 4 -12 1 -19z m-3891
-27 c-8 -12 -55 -21 -206 -36 -74 -7 -169 -21 -210 -31 -69 -17 -72 -19 -37
-22 21 -2 61 5 90 14 36 12 95 19 197 22 192 5 207 5 260 -5 35 -6 45 -12 45
-27 0 -11 -6 -21 -14 -24 -10 -3 -12 0 -7 13 6 17 5 17 -20 0 -23 -15 -34 -16
-85 -6 -32 7 -81 9 -109 5 -34 -4 -59 -3 -75 6 -17 9 -31 10 -56 2 -19 -6 -71
-17 -117 -23 -71 -11 -85 -11 -93 2 -6 9 -12 10 -16 4 -27 -35 -101 -70 -192
-89 -7 -1 -17 -10 -23 -19 -5 -9 -17 -17 -27 -17 -10 0 -26 -9 -36 -20 -10
-11 -23 -20 -29 -20 -18 0 -110 -52 -119 -66 -4 -8 -18 -14 -31 -14 -12 0 -38
-14 -57 -31 l-34 -31 68 35 c46 25 67 31 67 22 0 -8 -4 -17 -10 -20 -5 -3 -10
-15 -10 -26 0 -13 -7 -19 -22 -19 -24 0 -58 -26 -58 -45 0 -7 -12 -24 -26 -39
-32 -31 -26 -32 28 -6 49 24 54 24 39 6 -6 -7 -12 -30 -13 -50 -1 -20 -6 -36
-12 -36 -7 0 -43 -32 -81 -70 -39 -39 -76 -76 -84 -83 -97 -86 -191 -197 -191
-227 0 -11 -4 -20 -10 -20 -5 0 -10 -7 -10 -15 0 -19 -7 -19 -27 0 -14 14 -17
14 -30 -5 -11 -16 -18 -18 -28 -10 -10 8 -14 4 -20 -17 -3 -15 -12 -34 -18
-41 -20 -25 -16 -44 15 -71 21 -17 48 -28 82 -32 51 -6 51 -6 106 48 31 29 64
67 74 84 18 30 18 30 -3 36 -12 3 -21 6 -21 7 0 12 74 142 87 151 9 7 13 16
10 22 -3 5 8 18 26 28 18 11 50 36 72 57 44 42 55 46 55 20 0 -13 13 -21 45
-30 25 -7 54 -12 65 -12 28 0 26 -7 -20 -61 -22 -26 -40 -52 -40 -57 0 -9 -94
-96 -123 -114 -7 -4 -24 -8 -38 -8 -21 0 -49 -23 -123 -101 l-96 -101 6 -52
c5 -44 13 -58 58 -104 l51 -53 23 26 c34 40 29 82 -15 127 -44 45 -33 49 21 8
59 -45 85 -40 148 25 29 31 63 63 76 71 22 14 23 14 13 -3 -6 -10 -36 -45 -66
-78 -67 -72 -71 -102 -23 -152 40 -41 31 -54 -14 -20 -53 41 -88 30 -175 -56
-80 -79 -107 -87 -41 -13 l42 48 -40 34 c-69 61 -79 66 -108 55 -14 -6 -39 -8
-54 -5 -25 5 -39 -6 -141 -112 -105 -109 -112 -120 -107 -149 4 -17 3 -35 -1
-39 -4 -4 -8 -16 -8 -26 0 -32 -20 -23 -26 12 -6 31 -6 31 -8 -10 -1 -44 -20
-51 -22 -9 -1 17 -2 18 -6 4 -2 -10 4 -46 15 -80 11 -34 18 -74 15 -89 -6 -30
-23 -39 -23 -12 0 8 -4 12 -10 9 -5 -3 -12 7 -15 22 -3 15 -11 46 -17 68 -6
22 -10 114 -10 205 0 146 3 176 27 265 14 55 30 102 35 105 4 3 14 29 22 59 7
30 19 56 26 59 9 3 11 -4 6 -25 -14 -57 4 -16 24 56 12 40 37 96 56 125 36 54
52 101 37 110 -11 7 -67 -81 -77 -119 -3 -14 -17 -35 -30 -47 -13 -13 -24 -30
-24 -38 -1 -8 -16 -53 -35 -100 -23 -59 -34 -77 -34 -58 -1 25 18 107 34 153
l8 20 -17 -20 c-17 -20 -17 -20 -11 5 7 25 18 51 87 201 66 142 292 378 511
533 116 82 368 191 486 211 35 6 42 5 37 -6 -4 -8 0 -5 8 6 11 12 30 20 54 21
20 0 71 8 113 17 43 9 135 20 205 23 71 4 131 8 133 10 9 8 62 4 57 -5z m249
-21 c61 -11 112 -20 115 -20 2 0 -1 -5 -7 -11 -7 -7 -17 -8 -29 -1 -31 16 -92
23 -211 24 -103 1 -135 8 -100 21 27 11 128 6 232 -13z m152 -36 c-3 -3 -12
-4 -19 -1 -8 3 -5 6 6 6 11 1 17 -2 13 -5z m3453 -42 c0 -12 -49 -154 -55
-161 -10 -10 4 63 22 116 16 46 33 69 33 45z m-3791 -171 c29 -54 67 -196 85
-322 18 -123 19 -160 2 -106 -11 36 -12 31 -12 -60 1 -109 -12 -146 -67 -203
-27 -27 -36 -31 -65 -26 -21 3 -46 -1 -63 -9 -15 -8 -43 -13 -61 -11 -18 2
-64 0 -103 -4 l-70 -7 105 -3 c101 -2 103 -3 50 -12 -48 -8 -102 -7 -175 4
-26 4 -71 36 -62 44 4 4 18 -3 32 -16 14 -13 27 -21 30 -18 3 3 -9 18 -26 32
-51 43 -71 75 -85 130 -12 48 -12 49 -14 16 -1 -19 -4 -30 -6 -23 -3 7 -11 10
-18 7 -21 -8 -63 182 -75 345 -5 67 -14 127 -22 139 -12 20 -12 24 1 32 8 5
29 10 46 10 17 0 52 7 78 16 26 9 49 14 52 11 10 -9 14 -138 4 -132 -6 3 -10
-3 -10 -14 0 -11 4 -22 9 -25 4 -3 11 -22 14 -43 18 -114 49 -272 59 -296 15
-40 40 -49 126 -48 100 0 133 10 155 49 19 33 17 86 -13 272 -6 36 -15 103
-21 150 -12 105 -18 123 -29 95 -8 -19 -9 -19 -9 2 -1 18 7 23 52 31 80 15 95
14 106 -7z m883 -65 c5 3 48 -11 94 -32 82 -36 85 -39 96 -80 7 -24 16 -40 21
-37 6 4 7 1 3 -6 -5 -7 -5 -29 -1 -49 6 -31 9 -34 15 -17 5 15 12 3 29 -55 13
-41 29 -91 36 -110 8 -19 24 -71 35 -115 12 -44 24 -88 27 -99 3 -12 1 -16 -6
-12 -15 9 -14 2 4 -41 8 -19 15 -44 15 -54 0 -18 -2 -19 -37 -3 -21 9 -48 19
-61 21 -14 4 -24 15 -28 32 -3 14 -14 55 -25 90 -10 35 -19 70 -19 77 0 51
-49 84 -126 84 -31 0 -31 0 -37 -67 -4 -38 -7 -92 -7 -120 0 -49 -2 -53 -24
-53 -12 0 -36 5 -52 10 l-29 10 7 173 c4 94 9 186 12 202 3 17 6 73 7 125 1
68 5 102 17 120 9 15 17 20 20 12 2 -7 8 -9 14 -6z m424 -138 c58 -65 125
-150 120 -155 -2 -3 -13 0 -23 6 -10 6 -15 11 -11 11 5 0 -22 29 -60 65 -37
36 -58 63 -47 60 18 -6 18 -5 -2 13 -13 11 -23 23 -23 26 0 14 19 3 46 -26z
m-98 -45 c43 -34 131 -122 183 -181 11 -13 23 -21 26 -18 4 3 -3 16 -14 29
-29 32 -37 48 -20 41 15 -5 41 -50 42 -71 0 -14 42 -84 68 -116 10 -12 4 7
-14 43 -17 36 -24 58 -16 50 18 -18 97 -172 97 -188 0 -6 6 -26 14 -44 8 -18
20 -67 27 -108 7 -41 20 -108 31 -149 19 -78 24 -151 10 -151 -11 0 -100 59
-108 71 -3 5 2 9 10 9 20 0 20 14 1 30 -9 7 -14 18 -12 25 7 16 -29 153 -45
173 -7 9 -19 23 -26 31 -8 8 -11 24 -7 41 5 22 2 30 -13 34 -13 5 -18 13 -15
25 3 12 -2 20 -16 24 -15 4 -19 10 -14 23 5 14 2 16 -15 12 -15 -4 -28 2 -46
24 -16 20 -31 28 -40 25 -12 -5 -16 0 -16 18 0 19 -4 23 -17 18 -16 -6 -16 -5
-4 10 7 9 17 14 22 11 5 -3 17 0 26 5 17 10 17 10 1 11 -10 0 -18 5 -18 11 0
6 -10 8 -22 5 -13 -3 -17 -3 -10 0 6 3 12 15 12 26 0 23 19 20 34 -7 12 -21
49 -55 54 -50 6 6 -23 49 -45 68 -13 10 -23 25 -23 33 0 8 -4 13 -9 10 -4 -3
-13 6 -20 20 -6 14 -15 23 -20 20 -5 -3 -8 2 -7 10 0 10 -13 24 -32 33 -19 9
-35 26 -38 41 -3 14 -8 33 -11 43 -6 25 3 21 55 -20z m83 -18 c14 -11 34 -33
45 -50 15 -23 4 -17 -51 29 -38 32 -72 63 -73 68 -4 10 41 -17 79 -47z m-76
-106 c11 -17 -1 -21 -15 -4 -8 9 -8 15 -2 15 6 0 14 -5 17 -11z m-1118 -161
c-2 -13 -4 -5 -4 17 -1 22 1 32 4 23 2 -10 2 -28 0 -40z m1411 27 c-3 -3 -9 2
-12 12 -6 14 -5 15 5 6 7 -7 10 -15 7 -18z m-2150 -32 c7 -7 27 -13 43 -13 34
0 36 -8 9 -43 -11 -14 -20 -30 -20 -35 0 -26 -52 -70 -97 -82 -27 -7 -56 -21
-66 -32 -21 -22 -37 -23 -37 -4 0 8 28 40 63 72 56 51 36 50 -23 -2 -47 -41
-73 -53 -98 -43 -23 9 -23 9 -6 38 10 17 20 29 23 28 3 -1 17 6 31 16 13 9 20
17 16 17 -5 0 -18 -7 -28 -17 -15 -14 -18 -14 -18 -1 0 8 9 23 20 33 11 10 20
26 20 35 0 30 40 48 100 47 30 -1 61 -8 68 -14z m727 -100 c-7 -30 -32 -63
-47 -63 -6 0 2 14 16 31 14 17 26 37 26 45 0 8 3 14 6 14 3 0 3 -12 -1 -27z
m-565 -44 c0 -6 -4 -7 -10 -4 -5 3 -10 11 -10 16 0 6 5 7 10 4 6 -3 10 -11 10
-16z m-40 -15 c0 -15 -23 -44 -34 -44 -6 0 3 47 11 63 7 11 23 -2 23 -19z
m3912 -36 c-6 -6 -7 0 -4 19 5 21 7 23 10 9 2 -10 0 -22 -6 -28z m-1997 -141
c-4 -8 -16 -17 -27 -20 -19 -5 -19 -5 3 19 24 26 33 26 24 1z m-3731 -277 c21
-41 55 -101 77 -132 21 -32 33 -55 26 -52 -6 2 -28 28 -47 56 -19 28 -40 57
-46 63 -23 22 -94 185 -109 247 -27 114 -14 115 24 3 20 -60 54 -144 75 -185z
m3153 270 c164 -28 288 -58 339 -81 23 -11 59 -22 79 -23 21 -2 41 -10 46 -17
5 -8 9 -9 9 -4 0 6 6 3 13 -5 7 -9 48 -31 92 -50 44 -19 100 -49 124 -68 24
-18 58 -39 75 -46 17 -7 37 -20 45 -29 12 -15 10 -16 -20 -11 -19 3 -52 19
-74 35 -53 38 -272 147 -310 154 -16 3 -1 -7 35 -22 123 -52 235 -127 346
-229 37 -33 29 -28 156 -112 20 -13 42 -21 48 -17 6 3 29 -7 52 -24 23 -17 38
-31 34 -31 -4 0 -21 9 -38 21 -16 12 -31 19 -34 16 -6 -5 54 -41 153 -91 40
-20 88 -50 108 -67 19 -17 35 -26 35 -21 0 6 30 -4 68 -23 103 -52 107 -57 37
-50 -108 11 -139 16 -149 24 -6 5 -23 11 -38 15 -19 4 -28 13 -28 26 0 13 -9
21 -27 25 -43 9 -93 33 -93 45 0 5 -4 10 -9 10 -10 0 -149 80 -193 111 -14 11
-33 19 -42 19 -8 0 -23 11 -32 25 -10 16 -26 25 -41 25 -16 0 -27 7 -30 18 -2
10 -20 24 -39 31 -19 7 -34 17 -34 22 0 5 -6 9 -14 9 -18 0 -56 51 -57 77 0
10 -3 13 -6 6 -8 -21 -34 -15 -55 12 -11 14 -26 25 -34 25 -8 0 -32 11 -54 25
-22 14 -46 25 -53 25 -7 0 -22 7 -33 15 -10 8 -29 15 -41 15 -12 0 -30 11 -40
24 -14 18 -26 23 -46 19 -17 -3 -35 2 -53 16 -27 21 -54 28 -54 13 0 -4 14
-19 31 -32 58 -48 134 -114 149 -131 14 -16 70 -63 209 -172 29 -23 63 -51 74
-62 l21 -19 -32 -10 c-27 -8 -36 -6 -55 12 -13 12 -30 22 -38 22 -8 0 -30 11
-49 25 -19 14 -39 25 -46 25 -6 0 -17 6 -23 14 -6 7 -44 35 -84 62 -78 52
-143 100 -241 182 -35 28 -72 52 -83 52 -11 0 -30 9 -43 20 -13 11 -27 20 -31
20 -5 0 -17 9 -28 21 -15 17 -34 22 -88 25 -37 1 -58 1 -45 -2 12 -3 22 -13
22 -23 0 -29 281 -267 440 -373 30 -20 68 -48 85 -61 l30 -25 -48 3 c-34 2
-61 12 -88 32 -22 15 -54 36 -72 46 -18 11 -41 27 -52 36 -37 31 -101 69 -142
83 -23 7 -51 21 -64 31 -13 9 -55 40 -94 68 -38 28 -80 56 -92 62 -13 5 -23
13 -23 17 0 4 -14 13 -31 21 -18 7 -43 24 -56 37 -22 22 -30 24 -76 18 -29 -4
-96 -11 -150 -16 -91 -9 -115 -15 -172 -48 -24 -13 -187 -72 -201 -72 -10 0
38 24 131 66 33 15 67 35 75 44 14 16 79 37 300 99 41 11 84 21 95 21 59 -1
156 7 162 13 13 14 185 6 300 -13z m453 -75 c16 -20 -3 -20 -45 0 l-30 13 31
1 c17 1 37 -6 44 -14z m-1344 -41 c-9 -8 -26 -14 -38 -11 -23 4 -23 4 2 15 38
17 55 15 36 -4z m-80 -31 c-2 -25 -23 -36 -40 -21 -11 10 -10 14 8 24 30 17
34 16 32 -3z m-2309 -60 c-2 -16 -4 -5 -4 22 0 28 2 40 4 28 2 -13 2 -35 0
-50z m2343 63 c0 -3 -4 -8 -10 -11 -5 -3 -10 -1 -10 4 0 6 5 11 10 11 6 0 10
-2 10 -4z m-2218 -202 c39 -59 131 -175 199 -248 26 -28 65 -74 87 -102 23
-28 63 -62 91 -78 28 -15 51 -33 51 -41 0 -21 -57 -77 -65 -64 -4 6 -2 16 4
22 20 20 12 61 -17 81 l-27 19 24 -26 c20 -23 21 -25 4 -21 -45 12 -85 -104
-43 -126 9 -5 20 -6 24 -3 3 3 6 -1 6 -11 0 -15 -3 -15 -28 -2 -63 33 -242
230 -242 268 0 4 -15 41 -34 80 -62 131 -112 284 -121 368 l-6 55 31 -60 c16
-33 45 -83 62 -111z m2036 141 c-20 -14 -43 -25 -50 -25 -15 0 61 49 77 50 5
0 -7 -11 -27 -25z m1946 -51 c23 -22 8 -39 -15 -18 -10 9 -19 21 -19 26 0 13
17 9 34 -8z m79 -171 c12 -6 38 -28 57 -49 l35 -37 -52 34 c-104 68 -158 107
-178 129 -12 14 7 5 48 -21 37 -24 78 -49 90 -56z m-2298 67 c-10 -11 -23 -20
-28 -20 -13 0 24 39 37 39 5 1 1 -8 -9 -19z m16 -40 c-13 -11 -28 -20 -35 -20
-6 0 0 9 14 20 33 26 52 25 21 0z m-1822 -53 c1 -10 -3 -15 -9 -12 -5 3 -10
21 -9 38 0 27 2 29 9 12 5 -11 9 -28 9 -38z m1701 16 c-18 -16 -45 -38 -58
-50 -14 -13 -28 -23 -31 -23 -10 1 103 100 113 100 6 0 -5 -12 -24 -27z m1260
-4 c0 -5 -7 -9 -15 -9 -15 0 -20 12 -9 23 8 8 24 -1 24 -14z m1245 -9 c3 -6
-1 -7 -9 -4 -18 7 -21 14 -7 14 6 0 13 -4 16 -10z m-3642 -110 c4 -50 10 -108
13 -129 6 -35 4 -39 -20 -43 -25 -5 -26 -3 -26 38 0 25 -5 44 -12 47 -10 3 -8
10 6 25 12 14 16 29 13 44 -7 26 3 108 13 108 4 0 10 -41 13 -90z m2222 60 c0
-18 -6 -26 -23 -28 -27 -4 -40 22 -22 44 19 22 45 13 45 -16z m-2735 -90 c12
-30 24 -61 27 -67 3 -7 1 -13 -3 -13 -16 1 -75 151 -73 184 0 12 16 -21 49
-104z m4191 80 l24 -21 -32 16 c-32 15 -42 25 -24 25 5 0 19 -9 32 -20z m1106
14 c-3 -3 -12 -4 -19 -1 -8 3 -5 6 6 6 11 1 17 -2 13 -5z m-92 -44 c-3 -5 1
-10 9 -10 9 0 16 -4 16 -10 0 -15 -26 -12 -39 3 -11 14 -5 27 11 27 5 0 6 -4
3 -10z m-3665 -4 c0 -3 -4 -8 -10 -11 -5 -3 -10 -1 -10 4 0 6 5 11 10 11 6 0
10 -2 10 -4z m3805 -16 c-3 -5 -23 -9 -43 -9 l-37 2 40 7 c22 4 41 8 43 9 2 0
0 -3 -3 -9z m79 -5 c-4 -8 -16 -15 -28 -15 -20 1 -20 1 4 15 31 18 30 18 24 0z
m-1108 -30 c18 -14 40 -25 49 -25 9 0 29 -9 45 -20 15 -11 40 -24 56 -30 42
-16 116 -61 111 -67 -8 -7 -269 125 -292 148 -28 27 -8 24 31 -6z m-3671 -18
c0 -26 -20 -25 -23 2 -3 16 1 22 10 19 7 -3 13 -12 13 -21z m-9 -64 c-10 -10
-19 5 -10 18 6 11 8 11 12 0 2 -7 1 -15 -2 -18z m199 -4 c11 -17 2 -18 -30 -4
l-30 13 27 1 c15 1 30 -4 33 -10z m96 -20 l24 -21 -25 6 c-14 3 -33 6 -42 6
-10 0 -18 7 -18 15 0 22 34 18 61 -6z m4532 1 c-3 -11 -7 -20 -9 -20 -2 0 -4
9 -4 20 0 11 4 20 9 20 5 0 7 -9 4 -20z m-5410 -10 c3 -11 1 -18 -4 -14 -5 3
-9 12 -9 20 0 20 7 17 13 -6z m760 -2 c18 -9 15 -28 -5 -28 -6 0 -16 -7 -23
-16 -18 -25 2 -57 55 -90 107 -67 182 -153 211 -243 6 -20 15 -40 19 -46 5 -5
11 -31 15 -58 7 -43 6 -47 -11 -41 -27 9 28 -37 111 -93 39 -26 94 -67 123
-90 29 -24 57 -43 62 -43 6 0 10 41 11 93 0 69 3 86 10 67 9 -26 65 -55 74
-40 3 5 3 37 0 70 -4 54 -3 61 12 58 13 -2 17 -16 19 -63 2 -33 8 -74 14 -90
6 -16 10 -68 9 -114 l-2 -85 49 -34 c49 -34 72 -61 40 -49 -15 6 -175 116
-289 200 -113 82 -188 128 -205 125 -11 -2 -18 5 -20 20 -2 15 -8 22 -18 18
-7 -3 -13 -2 -11 2 1 4 -2 9 -8 12 -5 3 -11 -11 -13 -30 -2 -27 0 -31 8 -20
24 36 39 -51 20 -125 l-8 -30 -1 28 c-1 28 -21 39 -21 11 0 -9 -6 -14 -12 -12
-14 5 -19 119 -6 155 5 17 2 27 -15 40 -13 10 -26 26 -30 36 -6 16 -5 16 18 1
30 -20 33 -5 5 21 -11 10 -20 23 -20 30 0 7 -9 20 -20 30 -11 10 -20 24 -20
32 0 7 -4 13 -10 13 -5 0 -29 21 -52 46 -24 25 -61 56 -84 70 -35 21 -47 23
-86 16 -25 -5 -56 -16 -69 -25 -13 -10 -34 -17 -47 -17 -13 0 -20 -4 -17 -10
9 -15 -17 -91 -36 -103 -9 -6 -15 -16 -13 -22 3 -6 1 -29 -4 -50 -6 -29 -17
-46 -41 -62 -30 -20 -33 -28 -8 -24 14 2 1 -81 -14 -90 -10 -6 -10 -9 -1 -9 6
0 12 -11 12 -24 0 -13 -6 -26 -12 -29 -10 -3 -10 -10 2 -31 10 -20 11 -29 3
-34 -7 -4 -11 -28 -10 -52 1 -25 -2 -46 -8 -47 -9 -3 -13 31 -15 137 -2 122 1
172 14 213 7 25 11 57 9 71 -9 45 37 214 68 255 11 13 19 32 19 42 0 11 7 19
16 19 9 0 14 7 12 19 -3 21 28 61 49 61 7 0 13 5 13 11 0 6 7 9 15 5 9 -3 19
3 26 16 11 21 12 21 25 3 14 -18 14 -18 14 1 0 43 45 52 103 22z m4227 -3 c0
-8 -7 -15 -15 -15 -9 0 -12 6 -9 15 4 8 10 15 15 15 5 0 9 -7 9 -15z m-50 -4
c0 -17 -95 -78 -117 -77 -50 5 -32 27 51 63 58 25 66 27 66 14z m168 -26 c6
-14 10 -25 8 -25 -2 0 -11 11 -20 25 -9 14 -13 25 -8 25 5 0 14 -11 20 -25z
m-459 -6 c28 -12 51 -26 51 -30 0 -13 -2 -12 -67 21 -68 34 -59 40 16 9z
m-4169 -5 c0 -18 -23 -44 -39 -44 -12 0 -14 20 -5 44 8 21 44 21 44 0z m4496
-31 c-11 -11 -19 6 -11 24 8 17 8 17 12 0 3 -10 2 -21 -1 -24z m-391 17 c-3
-4 7 -11 23 -15 15 -4 22 -9 15 -12 -10 -4 -73 22 -73 30 0 2 9 3 20 4 11 1
18 -2 15 -7z m365 -8 c0 -9 -44 -32 -60 -32 -18 0 -10 17 13 28 27 13 47 15
47 4z m-1188 -31 c-12 -7 -62 -4 -62 5 0 2 17 4 38 4 23 0 32 -3 24 -9z m223
-1 c-3 -5 -39 -10 -78 -10 -50 0 -67 3 -57 10 20 13 143 13 135 0z m115 0 c12
-8 11 -10 -7 -10 -13 0 -23 5 -23 10 0 13 11 13 30 0z m-535 -10 c-11 -5 -43
-9 -71 -9 -28 -1 -75 -5 -105 -10 -30 -5 -79 -12 -109 -15 -45 -5 -52 -4 -35
6 23 14 192 36 280 36 42 0 54 -2 40 -8z m952 -6 c-3 -3 -12 -4 -19 -1 -8 3
-5 6 6 6 11 1 17 -2 13 -5z m453 -16 c0 -16 -3 -19 -11 -11 -6 6 -8 16 -5 22
11 17 16 13 16 -11z m-4562 -14 c2 -29 -25 -87 -38 -79 -4 3 -11 -1 -14 -7
-13 -29 6 40 21 75 19 43 28 47 31 11z m52 -25 c-22 -43 -35 -52 -25 -16 11
38 28 67 36 61 5 -3 0 -23 -11 -45z m810 31 c0 -11 -6 -20 -13 -20 -19 0 -27
10 -20 26 8 21 33 17 33 -6z m2696 9 c12 -9 74 -12 249 -10 134 1 260 -3 294
-9 39 -7 67 -7 84 -1 26 10 130 2 172 -13 18 -7 18 -6 3 4 -25 16 -23 33 2 20
11 -6 20 -19 20 -30 0 -10 5 -22 10 -25 14 -9 12 -41 -2 -53 -7 -5 -31 -12
-53 -14 -34 -2 -40 0 -37 15 2 9 -3 17 -9 17 -7 0 -21 -8 -32 -17 -16 -15 -43
-18 -166 -21 -145 -3 -195 6 -161 27 8 6 12 12 9 15 -21 21 -312 19 -629 -4
-8 -1 -26 -1 -40 0 -14 1 -49 -2 -78 -6 -48 -6 -52 -9 -46 -28 4 -11 3 -18 -1
-14 -5 4 -14 3 -21 -3 -6 -5 -45 -12 -86 -14 -40 -2 -95 -8 -123 -13 -29 -6
-51 -6 -53 -1 -6 16 -50 10 -56 -8 -5 -12 -10 -13 -18 -5 -9 9 -15 9 -26 0 -7
-7 -42 -13 -77 -14 -35 -1 -68 -5 -73 -8 -6 -3 -34 -9 -64 -12 -29 -3 -62 -8
-73 -11 -17 -5 -18 -4 -7 10 11 13 10 15 -5 11 -238 -55 -278 -62 -418 -74
-60 -5 -126 -11 -145 -14 -21 -4 -37 -1 -42 7 -6 9 -11 7 -19 -6 -6 -9 -15
-15 -21 -11 -6 4 -5 10 3 15 11 7 9 9 -6 10 -11 1 -30 3 -43 4 -12 1 -25 -2
-28 -6 -3 -5 7 -9 21 -9 15 0 24 -4 20 -10 -4 -6 -86 -10 -213 -10 -228 0
-305 13 -380 63 -20 13 -54 27 -75 30 -21 3 -55 15 -75 26 -63 34 -96 49 -139
67 -43 18 -50 36 -26 78 10 18 11 18 31 0 57 -52 66 -55 60 -19 -6 30 11 34
19 5 3 -11 14 -20 25 -20 11 0 28 -5 39 -11 11 -6 25 -8 32 -5 7 2 2 8 -10 11
-36 11 -27 25 10 14 60 -17 87 -31 88 -48 0 -15 1 -15 11 0 10 14 19 13 96 -8
46 -13 103 -25 126 -27 22 -1 54 -8 69 -14 16 -7 39 -12 52 -12 13 0 27 -4 30
-10 3 -5 11 -10 18 -10 18 0 -10 24 -46 37 -29 11 -24 12 43 7 159 -11 394 -4
412 14 6 6 22 12 34 12 12 0 55 7 95 15 41 8 85 16 99 18 14 1 31 6 37 10 7 4
27 5 45 2 21 -4 63 2 111 15 43 12 95 20 115 19 20 -1 51 4 67 13 17 8 53 18
80 21 28 4 68 9 90 12 27 4 35 3 25 -3 -8 -5 -34 -13 -58 -17 -24 -4 -39 -11
-36 -17 4 -6 20 -7 38 -4 17 4 87 14 156 22 69 8 141 16 160 19 19 3 73 7 118
9 46 3 86 6 87 8 2 2 70 5 150 7 106 2 150 -1 161 -10z m972 -22 c-2 -10 -8
-11 -28 0 l-24 12 24 9 c25 10 34 3 28 -21z m-3601 -7 c17 -13 20 -20 11 -20
-8 0 -23 9 -33 20 -10 11 -15 20 -11 20 4 0 19 -9 33 -20z m4081 -2 c20 -20
13 -28 -13 -16 -14 6 -25 15 -25 20 0 12 24 10 38 -4z m-4158 -15 c0 -5 -7
-17 -15 -27 -12 -16 -18 -17 -27 -8 -9 9 -8 12 5 12 10 0 14 5 11 15 -4 9 0
15 10 15 9 0 16 -3 16 -7z m-1017 -86 c25 -16 27 -22 21 -55 -4 -20 -8 -39
-11 -41 -5 -6 -80 68 -105 104 -21 29 -21 29 15 -4 21 -19 37 -29 37 -22 0 6
-11 22 -23 34 -13 12 -30 33 -37 47 -12 23 -9 22 31 -10 24 -20 57 -44 72 -53z
m184 13 c-3 -14 -16 -70 -31 -125 -14 -55 -26 -114 -26 -131 0 -28 -20 -51
-32 -38 -10 9 17 149 54 288 19 70 22 77 30 55 5 -13 7 -35 5 -49z m4524 61
c11 -2 18 -41 8 -41 -5 0 -9 -7 -9 -15 0 -9 -6 -12 -15 -9 -8 4 -15 1 -15 -5
0 -6 5 -11 10 -11 6 0 10 -5 10 -12 0 -9 -3 -9 -11 -1 -16 16 -51 4 -44 -16 4
-9 9 -29 12 -46 14 -70 75 -141 142 -163 56 -20 135 -15 156 8 10 11 24 20 30
20 7 0 15 7 19 15 3 8 13 15 22 15 10 0 25 7 34 15 14 12 20 12 42 1 16 -9 28
-10 30 -5 6 17 50 -6 87 -42 23 -24 30 -27 22 -12 -14 27 -59 60 -108 77 -29
11 -34 15 -21 21 25 10 116 -43 144 -85 28 -40 30 -55 9 -46 -18 7 -19 2 -3
-24 10 -16 9 -33 -5 -87 -16 -62 -23 -73 -79 -122 -47 -43 -57 -56 -44 -61 14
-5 11 -11 -17 -43 -18 -21 -40 -39 -48 -41 -8 -1 -26 -10 -41 -20 -59 -39
-164 -46 -299 -20 -46 8 -97 22 -113 31 -30 14 -30 14 7 -21 43 -40 50 -57 10
-26 -16 12 -29 17 -33 11 -5 -9 -99 45 -137 79 -15 13 -17 34 -3 25 20 -13 9
12 -15 33 -13 12 -22 28 -19 35 2 7 -4 21 -15 31 -42 38 -67 170 -26 136 13
-10 15 -8 15 14 0 14 3 26 6 26 4 0 28 -15 54 -34 43 -31 49 -33 53 -16 3 12
-19 43 -69 98 -41 44 -74 88 -74 96 0 9 10 20 22 25 20 7 20 8 3 15 -11 4 -22
1 -27 -6 -6 -8 -7 -4 -2 12 9 34 21 48 61 66 21 11 46 14 69 11 38 -6 47 -1
133 84 31 31 48 37 82 30z m468 -15 c13 -14 20 -29 17 -35 -4 -6 -1 -9 7 -5
16 6 47 -60 47 -102 0 -14 5 -35 12 -47 6 -12 15 -37 19 -56 l8 -34 -42 40
c-43 41 -99 63 -157 63 -35 0 -35 -2 -7 75 11 28 12 44 5 53 -8 9 -7 11 6 6 9
-3 16 -1 16 4 0 24 20 62 33 62 7 0 24 -11 36 -24z m-110 7 c0 -5 -4 -17 -9
-28 -8 -18 -9 -17 -9 8 -1 15 4 27 9 27 6 0 10 -3 9 -7z m-5707 -76 c18 -12
59 -42 91 -66 33 -23 98 -63 145 -89 48 -25 103 -55 123 -67 53 -34 169 -90
217 -105 l42 -13 0 -52 c0 -29 2 -94 5 -146 3 -52 3 -88 -1 -81 -6 12 -44 17
-44 6 0 -4 8 -13 18 -21 15 -11 13 -12 -13 -1 -16 6 -50 28 -75 48 -25 19 -67
51 -93 70 -175 126 -268 222 -363 372 -36 56 -95 168 -89 168 2 0 19 -10 37
-23z m1623 13 c3 -5 2 -10 -4 -10 -5 0 -13 5 -16 10 -3 6 -2 10 4 10 5 0 13
-4 16 -10z m2405 0 c0 -13 -28 -25 -38 -16 -3 4 0 11 8 16 20 13 30 12 30 0z
m-2370 -20 c0 -5 -4 -10 -10 -10 -5 0 -10 5 -10 10 0 6 5 10 10 10 6 0 10 -4
10 -10z m41 -13 c-1 -12 -15 -9 -19 4 -3 6 1 10 8 8 6 -3 11 -8 11 -12z m3050
-12 c53 -28 177 -139 163 -148 -23 -13 -73 -17 -79 -7 -5 9 -1 10 16 6 13 -4
-14 16 -61 43 -53 32 -77 51 -65 52 17 1 17 2 3 6 -10 2 -18 8 -18 13 0 5 -12
16 -27 24 -16 8 -24 15 -19 16 5 0 25 -10 45 -22 l36 -21 -29 31 c-36 39 -30
40 35 7z m208 16 c12 -8 11 -13 -10 -30 -13 -11 -27 -20 -31 -21 -5 0 -8 -7
-8 -15 0 -9 -6 -12 -17 -8 -33 12 -113 65 -113 74 0 12 161 11 179 0z m761
-11 c0 -5 -5 -10 -11 -10 -5 0 -7 5 -4 10 3 6 8 10 11 10 2 0 4 -4 4 -10z
m-1095 -67 c100 -49 160 -87 112 -70 -12 5 -38 -7 -77 -33 -32 -22 -63 -40
-67 -40 -5 0 -31 -15 -58 -33 -28 -18 -61 -33 -73 -34 -13 -1 -34 -13 -47 -27
-13 -14 -29 -26 -35 -26 -12 0 -12 0 1 39 9 24 16 31 33 29 20 -3 21 0 18 101
-2 90 -1 103 13 98 17 -7 20 10 5 33 -7 11 -5 17 8 22 24 9 42 3 167 -59z
m1329 12 c4 -27 3 -33 -2 -20 -16 35 -24 81 -13 70 5 -5 12 -28 15 -50z
m-4284 25 c0 -11 -4 -20 -9 -20 -5 0 -7 9 -4 20 3 11 7 20 9 20 2 0 4 -9 4
-20z m2705 -16 c0 -16 4 -34 8 -41 4 -6 4 -14 -1 -16 -4 -3 -7 -30 -6 -61 1
-31 -2 -56 -6 -56 -4 0 -10 -19 -13 -41 -6 -48 -17 -62 -41 -53 -15 6 -15 8
-1 18 11 8 16 38 20 121 3 61 7 123 11 138 8 36 29 29 29 -9z m-2565 1 c7 -8
8 -15 2 -15 -5 0 -15 7 -22 15 -7 8 -8 15 -2 15 5 0 15 -7 22 -15z m-1074 -63
c-12 -11 -17 7 -9 34 l8 29 3 -28 c2 -16 1 -31 -2 -35z m3949 38 c3 -5 1 -10
-4 -10 -6 0 -11 5 -11 10 0 6 2 10 4 10 3 0 8 -4 11 -10z m-2769 -16 c17 -14
17 -15 1 -10 -10 3 -23 6 -28 6 -5 0 -9 5 -9 10 0 14 13 12 36 -6z m3435 -6
c11 -21 11 -22 -4 -9 -10 7 -17 17 -17 22 0 15 9 10 21 -13z m-3579 -36 c-3
-27 -7 -29 -30 -23 -32 9 -42 57 -14 64 31 7 49 -10 44 -41z m2997 12 c14 -12
-19 -1 -35 12 -18 14 -18 14 6 3 14 -6 27 -13 29 -15z m-2944 -26 c-1 -27 -18
-37 -23 -13 -5 21 6 48 16 41 4 -2 7 -15 7 -28z m265 0 c10 -6 2 -7 -25 -3
-22 4 -44 11 -50 17 -12 12 52 1 75 -14z m3411 -26 c-13 -2 -27 0 -32 5 -6 6
3 7 23 4 28 -4 29 -6 9 -9z m-3751 -38 c0 -30 -16 -31 -24 -1 -11 40 -8 51 9
37 8 -7 15 -23 15 -36z m3230 15 c30 -26 31 -28 7 -15 -15 9 -33 14 -40 10 -7
-4 -9 -4 -5 1 4 4 3 14 -3 22 -21 25 7 13 41 -18z m989 -37 c1 -20 -3 -31 -9
-27 -5 3 -10 27 -9 53 0 35 3 42 9 27 5 -11 9 -35 9 -53z m-3636 51 c-13 -2
-33 -2 -45 0 -13 2 -3 4 22 4 25 0 35 -2 23 -4z m1241 -52 c-16 -15 -16 -15
-9 4 4 11 10 29 13 40 6 18 7 18 10 -4 2 -13 -4 -31 -14 -40z m1456 49 c0 -5
-2 -10 -4 -10 -3 0 -8 5 -11 10 -3 6 -1 10 4 10 6 0 11 -4 11 -10z m-3250 -21
c0 -5 -4 -9 -8 -9 -5 0 -9 7 -9 15 0 8 4 12 9 9 4 -3 8 -9 8 -15z m-72 -89 c0
-22 -1 -22 -8 5 -4 17 -8 41 -8 55 0 22 1 22 8 -5 4 -16 8 -41 8 -55z m202 28
c0 -5 -4 -8 -10 -8 -5 0 -10 10 -10 23 0 18 2 19 10 7 5 -8 10 -18 10 -22z
m3190 7 c20 -24 6 -28 -15 -5 -10 11 -13 20 -8 20 6 0 16 -7 23 -15z m-3096
-10 c20 -8 60 -30 89 -49 76 -49 168 -93 208 -101 28 -5 38 -2 53 14 35 39 96
15 96 -38 0 -23 8 -29 67 -49 57 -20 119 -35 198 -46 11 -2 36 -8 55 -15 19
-6 67 -16 105 -21 39 -5 90 -14 115 -20 102 -27 131 -25 198 15 34 20 62 40
62 45 0 15 187 106 197 96 2 -2 -18 -16 -44 -31 -26 -15 -56 -35 -66 -43 -9
-8 -26 -20 -36 -26 -10 -6 -49 -37 -87 -69 -88 -75 -104 -81 -179 -68 -33 5
-96 15 -140 22 -44 7 -107 22 -140 34 -33 13 -87 28 -119 35 -33 7 -96 28
-140 47 -100 42 -119 49 -83 28 33 -19 30 -33 -3 -15 -11 6 -26 9 -33 7 -32
-10 147 -71 388 -132 61 -15 146 -37 190 -48 92 -23 163 -24 205 -2 16 8 54
35 85 60 57 47 93 61 59 24 -15 -17 -19 -36 -19 -94 0 -71 0 -72 47 -127 66
-78 130 -94 239 -62 68 20 119 72 149 151 12 32 25 62 30 68 9 12 7 51 -3 61
-4 4 -7 15 -7 24 0 10 -11 33 -24 53 -25 36 -25 50 -1 41 7 -3 16 0 21 7 5 8
3 10 -7 4 -11 -6 -12 -5 -2 5 14 15 43 22 43 11 0 -4 -4 -11 -10 -17 -5 -5 -7
-20 -3 -33 5 -20 10 -22 42 -17 35 6 131 42 160 60 33 21 169 86 208 100 24 8
55 27 70 41 27 24 50 34 38 16 -3 -5 4 -11 16 -13 18 -2 14 -8 -27 -34 -27
-17 -85 -48 -129 -69 -102 -48 -113 -56 -88 -67 12 -6 9 -6 -11 -3 -32 7 -140
-40 -131 -55 7 -11 -27 -30 -53 -30 -11 0 -27 -11 -36 -25 -9 -14 -23 -25 -31
-25 -23 0 -18 -17 6 -23 12 -3 28 0 36 9 17 16 59 19 68 3 4 -6 13 -8 21 -5 8
3 17 -1 21 -10 5 -13 8 -13 30 1 14 9 28 14 31 10 4 -3 0 -10 -8 -15 -8 -5
-11 -12 -7 -17 4 -4 17 -2 27 5 11 6 27 9 37 5 16 -6 16 -5 4 10 -7 9 -20 17
-27 17 -8 0 -14 5 -14 10 0 12 6 12 50 0 l35 -10 -25 20 c-28 22 -21 24 30 10
l35 -9 -37 34 c-35 33 -37 52 -5 39 8 -3 18 -1 21 4 3 6 16 8 28 4 16 -4 19
-2 13 8 -6 10 -2 11 19 6 24 -6 39 8 15 16 -6 2 -1 12 10 22 21 19 21 19 21
-17 0 -20 4 -38 8 -41 12 -7 131 75 137 96 3 9 13 19 21 22 10 4 13 2 8 -6 -5
-8 -2 -9 12 -3 28 12 75 15 68 4 -3 -5 -10 -9 -16 -9 -6 0 -19 -6 -27 -14 -9
-7 -43 -28 -76 -45 -77 -41 -177 -105 -248 -159 -31 -23 -63 -42 -71 -42 -9 0
-17 -10 -20 -22 -31 -167 -38 -245 -25 -254 5 -3 43 27 84 67 41 40 75 68 75
62 0 -17 -37 -129 -53 -160 -27 -51 -302 -303 -376 -344 -20 -11 -72 -42 -116
-70 -44 -27 -109 -63 -145 -80 -36 -17 -72 -34 -81 -39 -9 -5 -77 -7 -150 -4
-74 2 -190 6 -259 8 -73 3 -144 10 -170 19 l-45 15 35 2 35 2 -30 9 c-16 5
-70 16 -120 25 -115 19 -347 77 -405 100 -24 10 -51 25 -61 35 -9 9 -23 21
-31 25 -24 15 -158 184 -164 208 -3 12 0 60 5 106 6 47 11 88 11 92 0 4 12 0
28 -7 l27 -15 3 91 c1 50 7 89 11 87 11 -4 381 -322 399 -343 6 -8 12 -19 12
-26 0 -9 3 -9 14 0 11 9 15 9 19 -1 15 -42 35 57 36 177 l1 70 -50 53 c-28 28
-58 52 -66 52 -9 0 -25 11 -35 24 -10 13 -72 57 -136 98 -65 41 -171 108 -235
149 -86 54 -113 76 -100 80 10 4 29 -3 48 -17 17 -13 36 -24 42 -24 6 0 13 -6
16 -12 3 -9 11 -6 24 9 16 18 25 20 53 14 19 -4 48 -15 66 -24 34 -18 64 -23
48 -9 -6 5 -36 19 -68 32 -56 22 -57 23 -37 40 20 18 20 18 -10 29 -17 5 -29
7 -27 3 3 -4 2 -15 -2 -24 -5 -15 -8 -15 -31 -2 -22 13 -22 15 -4 11 15 -3 21
0 20 12 -1 20 -42 44 -59 35 -6 -4 -9 -4 -5 1 4 4 -11 25 -32 45 -55 53 -54
59 4 35z m2933 -7 c-3 -8 -6 -5 -6 6 -1 11 2 17 5 13 3 -3 4 -12 1 -19z m88
12 c3 -5 1 -10 -4 -10 -6 0 -11 5 -11 10 0 6 2 10 4 10 3 0 8 -4 11 -10z
m-4327 -30 c1 -35 -9 -44 -31 -27 -21 15 -12 57 13 57 12 0 17 -9 18 -30z m57
-7 c-4 -21 -8 -56 -9 -78 -1 -22 -4 -76 -5 -120 l-4 -80 -8 70 c-12 101 -1
245 18 245 12 0 14 -8 8 -37z m3945 -3 c0 -5 -7 -10 -16 -10 -8 0 -12 5 -9 10
3 6 10 10 16 10 5 0 9 -4 9 -10z m-2706 -25 c3 -8 0 -17 -7 -21 -7 -4 -9 -3
-4 1 4 5 -1 17 -10 27 -15 17 -15 18 -1 13 9 -4 19 -13 22 -20z m2971 16 c-3
-6 -29 -21 -58 -36 -28 -14 -61 -31 -72 -38 -84 -53 -171 -106 -212 -129 -26
-16 -82 -50 -123 -78 -107 -71 -108 -71 -115 -60 -3 5 29 31 71 57 42 26 90
57 108 68 50 33 276 167 331 197 51 28 81 36 70 19z m-4287 -29 c10 -7 11 -32
6 -106 -9 -123 -25 -113 -32 18 -5 93 -1 105 26 88z m1992 -32 c0 -23 -26 -38
-41 -23 -14 14 0 43 22 43 12 0 19 -7 19 -20z m2292 -24 c-3 -22 -10 -36 -18
-36 -8 0 -14 4 -14 9 0 5 -3 16 -6 24 -5 15 23 50 35 43 4 -3 5 -21 3 -40z
m-2923 4 c18 -17 38 -30 42 -30 5 0 9 -4 9 -10 0 -20 -21 -9 -63 30 -49 46
-39 54 12 10z m2951 -10 c0 -5 -4 -10 -10 -10 -5 0 -10 5 -10 10 0 6 5 10 10
10 6 0 10 -4 10 -10z m-630 -20 c0 -5 -5 -10 -11 -10 -5 0 -7 5 -4 10 3 6 8
10 11 10 2 0 4 -4 4 -10z m658 -30 c5 -13 3 -13 -12 -1 -16 14 -17 12 -11 -23
7 -36 7 -37 -13 -25 -11 7 -18 19 -16 26 2 7 6 20 9 29 6 19 36 15 43 -6z
m851 -44 c-11 -20 -26 -36 -32 -36 -5 0 -3 8 6 18 10 10 17 23 17 28 0 11 22
35 27 30 2 -2 -6 -20 -18 -40z m-2459 -57 c-29 -30 -47 -45 -42 -34 15 29 81
99 88 93 3 -3 -18 -30 -46 -59z m-1509 -2 c-8 -8 -11 -5 -11 9 0 27 14 41 18
19 2 -9 -1 -22 -7 -28z m2109 34 c0 -5 -7 -12 -16 -15 -14 -5 -15 -4 -4 9 14
17 20 19 20 6z m917 -23 c-3 -8 -6 -5 -6 6 -1 11 2 17 5 13 3 -3 4 -12 1 -19z
m-1364 -3 c15 -4 33 -18 41 -32 12 -23 14 -24 29 -8 9 9 17 14 17 12 0 -3 3
-13 6 -21 5 -12 2 -15 -10 -10 -18 7 -23 -20 -6 -31 6 -3 10 -12 10 -18 0 -7
-6 -5 -14 5 -12 16 -56 15 -56 -2 0 -4 -8 -16 -17 -28 -10 -11 -23 -29 -29
-39 -11 -17 -13 -17 -43 0 -17 10 -31 15 -31 12 0 -3 -5 -3 -10 0 -8 5 -7 12
2 22 10 12 9 17 -5 25 -22 12 -14 44 17 70 l21 18 -27 -6 c-33 -7 -35 -1 -7
25 21 19 53 21 112 6z m120 -14 c27 -27 46 -81 30 -81 -13 0 -37 28 -56 65 -9
17 -16 24 -17 18 0 -19 -28 -15 -39 5 -8 16 -5 18 24 19 24 1 40 -7 58 -26z
m1347 19 c0 -5 -2 -10 -4 -10 -3 0 -8 5 -11 10 -3 6 -1 10 4 10 6 0 11 -4 11
-10z m-3083 -32 c-3 -8 -6 -5 -6 6 -1 11 2 17 5 13 3 -3 4 -12 1 -19z m2953
12 c0 -5 -4 -10 -10 -10 -5 0 -10 5 -10 10 0 6 5 10 10 10 6 0 10 -4 10 -10z
m-4223 -32 c-3 -7 -5 -2 -5 12 0 14 2 19 5 13 2 -7 2 -19 0 -25z m3363 2 c0
-6 -12 -15 -26 -20 -32 -12 -34 -12 -34 0 0 6 7 10 15 10 8 0 15 5 15 10 0 6
7 10 15 10 8 0 15 -5 15 -10z m840 1 c0 -14 -50 -71 -62 -71 -5 0 5 18 22 40
33 41 40 47 40 31z m113 -41 c21 -28 43 -50 49 -50 6 0 3 9 -8 21 -17 19 -28
70 -14 69 3 -1 21 -14 40 -30 35 -30 31 -42 -4 -15 -33 25 -43 16 -12 -9 16
-14 34 -22 41 -20 6 3 23 -6 37 -19 14 -13 45 -33 69 -46 l44 -22 -40 5 -40 4
30 -13 c17 -8 51 -14 77 -15 47 0 74 -15 41 -22 -10 -2 8 -4 40 -4 31 0 57 3
57 7 0 3 17 9 38 12 90 15 135 28 162 47 15 11 33 20 38 20 6 0 12 6 15 13 8
21 42 -7 45 -37 6 -50 -5 -60 -32 -29 -21 24 -27 26 -38 14 -10 -11 -10 -12 0
-7 24 14 42 -14 42 -66 0 -65 -39 -147 -92 -193 -43 -36 -42 -45 2 -20 37 21
40 18 24 -20 -7 -19 -14 -51 -14 -72 -1 -55 -84 -158 -122 -151 -7 2 -12 -2
-11 -8 1 -7 -8 -9 -23 -6 -19 3 -22 7 -12 13 8 5 8 9 2 9 -6 0 -17 -7 -24 -15
-7 -8 -16 -15 -21 -15 -5 0 -30 -13 -56 -29 -27 -16 -60 -32 -75 -36 -25 -6
-27 -4 -34 32 -3 21 -14 47 -24 58 -10 11 -25 34 -34 52 -22 43 -87 105 -103
98 -8 -2 -11 -1 -8 4 6 11 -11 24 -35 27 -8 1 -33 9 -55 17 -22 8 -54 13 -72
10 -21 -4 -33 -1 -33 6 0 6 -11 11 -25 11 -19 0 -26 7 -34 38 -14 47 -13 86 0
137 6 22 16 73 23 113 7 40 15 74 17 76 46 39 105 76 116 72 11 -4 11 -1 3 14
-20 37 5 20 43 -30z m-4246 3 c-3 -10 -5 -4 -5 12 0 17 2 24 5 18 2 -7 2 -21
0 -30z m4178 27 c3 -5 1 -10 -4 -10 -6 0 -11 5 -11 10 0 6 2 10 4 10 3 0 8 -4
11 -10z m-3181 -16 c3 -9 7 -39 8 -67 1 -39 2 -43 5 -17 6 59 12 68 29 46 29
-40 16 -144 -42 -332 -31 -103 -73 -181 -112 -210 -8 -6 -12 -16 -9 -21 4 -6
-3 -22 -14 -37 -16 -20 -26 -25 -45 -20 -15 4 -31 1 -42 -8 -16 -14 -107 -59
-144 -71 -32 -11 -19 9 47 74 36 35 74 80 84 99 10 19 30 57 45 83 14 27 40
87 56 134 32 94 49 122 51 83 2 -45 39 113 54 233 6 48 18 60 29 31z m2176 -8
c0 -11 -19 -15 -25 -6 -3 5 1 10 9 10 9 0 16 -2 16 -4z m-3106 -22 c9 -25 7
-64 -4 -64 -5 0 -10 4 -10 9 0 5 -3 23 -6 40 -7 32 9 44 20 15z m3151 6 c3 -5
-1 -10 -9 -10 -8 0 -18 5 -21 10 -3 6 1 10 9 10 8 0 18 -4 21 -10z m1405 -28
c3 -3 -8 -2 -25 2 -16 4 -34 12 -40 17 -5 5 6 4 25 -2 19 -7 37 -14 40 -17z
m-1650 -2 c0 -5 -5 -10 -11 -10 -5 0 -7 5 -4 10 3 6 8 10 11 10 2 0 4 -4 4
-10z m1450 -5 c7 -8 8 -15 2 -15 -5 0 -15 7 -22 15 -7 8 -8 15 -2 15 5 0 15
-7 22 -15z m530 5 c0 -5 -5 -10 -11 -10 -5 0 -7 5 -4 10 3 6 8 10 11 10 2 0 4
-4 4 -10z m-415 -20 c22 -5 79 -12 126 -16 69 -6 79 -9 54 -16 -64 -18 -218 9
-250 44 -7 8 -5 9 9 4 11 -4 38 -11 61 -16z m461 -5 c3 -14 3 -33 -1 -42 -6
-16 -8 -14 -21 9 -14 26 -10 58 7 58 5 0 11 -11 15 -25z m-211 6 c-11 -4 -45
-5 -75 -1 l-55 7 75 1 c45 0 67 -2 55 -7z m-3698 -16 c15 -16 14 -43 -8 -150
-25 -118 -89 -285 -110 -285 -5 0 -9 -7 -9 -15 0 -8 -4 -15 -10 -15 -5 0 -10
2 -10 5 0 12 53 110 61 113 5 2 6 8 3 13 -3 6 0 16 6 24 7 8 10 15 6 15 -4 0
0 10 8 23 8 12 17 42 21 67 4 25 12 51 18 58 8 10 7 16 -1 21 -8 5 -9 23 -3
61 5 30 6 60 4 67 -7 18 5 16 24 -2z m3413 -14 c0 -5 -9 -7 -20 -4 -11 3 -20
7 -20 9 0 2 9 4 20 4 11 0 20 -4 20 -9z m-4503 -58 c1 -33 0 -34 -7 -13 -11
33 -12 62 -2 56 4 -2 8 -22 9 -43z m4570 21 c-3 -3 -12 -4 -19 -1 -8 3 -5 6 6
6 11 1 17 -2 13 -5z m-3643 -48 c-3 -21 -8 -35 -11 -32 -2 2 -1 20 3 40 3 21
8 35 11 32 2 -2 1 -20 -3 -40z m1646 24 c0 -5 -2 -10 -4 -10 -3 0 -8 5 -11 10
-3 6 -1 10 4 10 6 0 11 -4 11 -10z m1467 -12 c-3 -8 -6 -5 -6 6 -1 11 2 17 5
13 3 -3 4 -12 1 -19z m-3967 -81 c0 -10 5 -27 10 -38 6 -10 7 -19 2 -19 -9 0
-43 105 -41 126 1 15 28 -49 29 -69z m52 39 c14 -25 1 -33 -18 -10 -17 21 -15
11 10 -48 13 -31 14 -38 3 -38 -12 0 -32 47 -42 100 -4 22 34 19 47 -4z m4864
-2 c-4 -9 -9 -15 -11 -12 -3 3 -3 13 1 22 4 9 9 15 11 12 3 -3 3 -13 -1 -22z
m-3770 -26 c-7 -35 -21 -55 -28 -41 -3 4 -1 23 4 41 11 43 33 43 24 0z m-558
-1 c2 -12 -3 -17 -17 -17 -12 0 -21 6 -21 13 0 31 32 34 38 4z m-1158 -28 c59
-22 130 -88 130 -121 0 -23 -3 -23 -53 9 -23 15 -48 28 -55 29 -18 3 -54 36
-47 42 3 3 16 -5 30 -18 14 -13 25 -19 25 -14 0 12 -70 80 -90 87 -8 3 -10 6
-5 6 6 1 35 -8 65 -20z m4503 -78 c3 -24 2 -40 -3 -35 -5 5 -11 32 -15 59 -4
32 -3 45 3 35 5 -8 12 -35 15 -59z m-4278 24 c55 -8 105 -15 110 -16 6 -1 -1
-5 -15 -9 -17 -5 2 -8 60 -9 92 -1 133 -15 138 -46 3 -16 1 -18 -9 -7 -7 6
-20 12 -28 12 -13 -1 -13 -2 2 -11 9 -5 17 -17 17 -25 0 -9 7 -22 15 -30 8 -9
15 -31 15 -50 0 -28 -4 -34 -21 -34 -21 0 -21 0 2 -20 13 -10 21 -19 17 -20
-8 0 -91 39 -143 67 -38 20 -215 142 -234 161 -8 7 -24 20 -37 29 -28 18 -32
37 -6 29 9 -3 62 -13 117 -21z m415 -15 c0 -5 -4 -10 -10 -10 -5 0 -10 5 -10
10 0 6 5 10 10 10 6 0 10 -4 10 -10z m469 -4 c18 -22 -4 -58 -32 -54 -25 3
-34 32 -17 53 16 19 34 19 49 1z m2891 5 c0 -6 -4 -13 -10 -16 -5 -3 -10 1
-10 9 0 9 5 16 10 16 6 0 10 -4 10 -9z m466 -104 c4 -25 3 -37 -4 -33 -5 3
-15 -1 -22 -9 -7 -8 -21 -15 -30 -15 -16 0 -43 -29 -136 -143 -8 -9 -14 -23
-14 -30 0 -6 -9 -26 -20 -44 -11 -19 -15 -35 -10 -38 6 -4 10 -10 10 -15 0
-20 -165 -160 -175 -148 -1 2 2 39 7 83 9 82 15 164 17 225 1 31 7 39 54 69
28 19 79 55 112 81 33 26 87 66 119 88 l60 41 12 -36 c7 -20 16 -54 20 -76z
m-3794 46 c64 -97 77 -130 32 -78 -27 31 -74 101 -74 110 0 16 20 0 42 -32z
m-647 18 c7 -13 163 -131 171 -131 4 0 16 -7 26 -17 10 -9 18 -12 18 -6 0 6
-18 22 -40 37 -22 14 -40 29 -40 31 0 9 116 -53 129 -69 8 -9 19 -16 25 -16 7
0 27 -13 46 -30 34 -30 35 -30 7 -20 -16 6 -48 22 -73 36 -24 14 -48 23 -53
20 -15 -10 -126 61 -189 119 -31 30 -52 54 -45 55 6 0 14 -4 18 -9z m600 -10
c3 -11 16 -35 29 -53 23 -34 39 -88 27 -88 -9 0 -81 134 -81 149 0 18 18 12
25 -8z m-447 -12 c15 -11 53 -40 86 -65 32 -24 55 -44 50 -44 -4 0 -44 18 -90
40 -70 34 -81 43 -81 65 0 30 2 31 35 4z m375 1 c3 -11 1 -18 -4 -14 -5 3 -9
12 -9 20 0 20 7 17 13 -6z m4864 -2 c-3 -8 -6 -5 -6 6 -1 11 2 17 5 13 3 -3 4
-12 1 -19z m-923 -24 c11 -28 6 -38 -9 -18 -8 10 -15 22 -15 27 0 13 18 7 24
-9z m-2881 -14 c-3 -12 -8 -19 -11 -16 -5 6 5 36 12 36 2 0 2 -9 -1 -20z
m3767 -30 c-18 -33 -25 -15 -9 22 9 23 15 28 17 16 2 -9 -2 -27 -8 -38z m30 5
c-6 -15 -13 -26 -15 -23 -3 2 1 19 8 37 6 17 13 28 15 23 1 -5 -2 -22 -8 -37z
m-1530 15 c0 -16 -38 -50 -56 -50 -16 0 -12 12 14 43 16 19 42 23 42 7z m110
-19 c5 7 12 10 16 6 7 -7 -13 -37 -26 -37 -10 0 -20 37 -11 45 3 4 8 -1 10
-11 2 -13 5 -14 11 -3z m-3379 -56 c8 -16 6 -15 -10 4 -12 13 -21 28 -21 35 0
12 14 -5 31 -39z m3317 28 c-2 -12 3 -18 13 -17 11 1 15 -5 12 -17 -3 -11 -8
-19 -12 -19 -12 0 -31 40 -25 55 8 20 16 19 12 -2z m-3128 -125 c0 -4 -7 -8
-15 -8 -22 0 -61 44 -75 83 -10 31 -9 31 40 -18 27 -27 50 -53 50 -57z m3598
75 c-15 -15 -30 -24 -34 -20 -7 7 35 46 51 47 5 0 -3 -12 -17 -27z m-403 -33
c-1 -38 -7 -55 -25 -76 l-25 -27 23 12 c13 7 25 11 27 9 7 -7 -22 -117 -34
-132 -6 -7 -9 -21 -5 -29 3 -9 -1 -31 -10 -48 -9 -18 -16 -37 -16 -43 0 -13
36 48 51 87 6 15 15 27 20 27 12 0 11 -47 -1 -55 -5 -3 -9 -16 -8 -28 2 -23
-31 -87 -44 -87 -4 0 -8 -7 -8 -15 0 -21 -41 -75 -56 -75 -7 0 -27 -12 -45
-27 l-32 -27 16 31 c20 37 11 50 -13 20 -10 -12 -22 -19 -26 -15 -4 5 0 16 9
26 11 12 13 22 7 28 -12 12 22 96 65 164 14 22 25 48 25 58 0 10 3 22 7 26 14
14 42 120 33 126 -17 11 10 85 38 103 15 9 27 17 27 17 1 0 0 -22 0 -50z
m-3600 19 c25 -12 44 -24 41 -26 -2 -2 -26 7 -53 21 -59 31 -50 34 12 5z
m1175 11 c0 -5 -5 -10 -11 -10 -5 0 -7 5 -4 10 3 6 8 10 11 10 2 0 4 -4 4 -10z
m2320 4 c0 -3 -10 -26 -22 -52 -12 -26 -21 -51 -20 -55 1 -4 -9 -20 -23 -35
-14 -15 -25 -33 -25 -40 0 -8 -6 -12 -12 -9 -16 5 -11 56 6 77 7 8 21 33 31
55 10 22 22 46 28 53 9 12 37 17 37 6z m-3200 -83 c0 -3 12 -14 28 -23 l27
-17 -27 -1 c-14 0 -48 9 -74 20 l-47 21 22 20 c18 17 19 24 10 42 -6 12 4 5
25 -17 20 -21 36 -41 36 -45z m732 37 c-7 -7 -12 -8 -12 -2 0 14 12 26 19 19
2 -3 -1 -11 -7 -17z m2331 -20 c-13 -12 -26 -19 -29 -15 -4 4 1 14 12 22 29
22 41 18 17 -7z m647 -9 c-7 -11 -14 -18 -17 -15 -3 3 0 12 7 21 18 21 23 19
10 -6z m-700 -34 c0 -8 -9 -19 -20 -25 -23 -12 -25 -8 -8 20 15 24 28 26 28 5z
m210 -15 c0 -16 -5 -30 -10 -30 -14 0 -24 26 -16 45 10 26 26 16 26 -15z
m-2810 2 c0 -12 -67 -45 -81 -40 -7 2 5 14 26 25 46 23 55 26 55 15z m208 -18
c-10 -10 -23 -14 -34 -10 -16 6 -16 8 -4 16 8 6 24 10 35 10 18 0 18 -1 3 -16z
m3828 -20 c-30 -21 -42 -17 -16 6 13 11 26 17 29 14 3 -3 -3 -12 -13 -20z
m-3680 0 c18 -14 18 -15 -6 -8 -31 8 -50 24 -29 24 8 0 24 -7 35 -16z m3494
-25 c0 -18 -4 -28 -10 -24 -5 3 -10 20 -10 36 0 18 4 28 10 24 6 -3 10 -20 10
-36z m-4060 21 c0 -5 -2 -10 -4 -10 -3 0 -8 5 -11 10 -3 6 -1 10 4 10 6 0 11
-4 11 -10z m378 -2 c-5 -16 -68 -49 -80 -42 -12 7 44 53 65 54 11 0 17 -6 15
-12z m2366 -2 c-21 -15 -30 -14 -19 3 3 6 14 11 23 11 13 0 13 -2 -4 -14z
m-2629 -16 c18 -8 17 -9 -7 -9 -16 -1 -28 4 -28 9 0 12 8 12 35 0z m2700 -12
c-14 -47 -105 -228 -115 -228 -5 0 -10 4 -10 9 0 11 98 209 113 229 14 18 19
15 12 -10z m-2292 -9 c60 -47 276 -142 440 -193 95 -30 183 -59 197 -64 24
-10 23 -11 -13 -11 -34 -1 -37 -3 -23 -16 8 -8 21 -15 28 -15 10 0 9 -3 -2
-10 -31 -20 -107 -10 -226 30 -65 22 -153 50 -194 61 -41 11 -100 34 -130 51
-30 16 -88 48 -128 70 -40 22 -79 37 -87 34 -8 -3 -15 -1 -15 4 0 22 40 19 75
-5 21 -14 45 -25 54 -25 9 1 3 7 -14 17 -16 8 -38 23 -48 31 -16 15 -17 17 -3
28 13 9 30 4 82 -23 37 -18 68 -32 71 -30 5 5 -87 67 -99 67 -4 0 -8 5 -8 10
0 16 15 12 43 -11z m3697 -19 c-24 -15 -37 -11 -16 5 11 8 22 12 25 9 3 -3 -1
-9 -9 -14z m-4005 0 c-3 -5 -13 -10 -21 -10 -8 0 -14 5 -14 10 0 6 9 10 21 10
11 0 17 -4 14 -10z m3223 -19 c-8 -12 -18 -18 -21 -14 -4 3 -7 -1 -7 -11 0 -9
-4 -15 -10 -11 -13 8 -1 35 16 35 8 0 17 7 21 15 3 9 8 14 10 11 3 -3 -1 -14
-9 -25z m-722 -21 c-4 -22 -2 -29 6 -24 7 4 8 3 4 -5 -4 -6 -12 -9 -17 -6 -5
4 -9 4 -9 1 0 -2 -3 -12 -7 -22 -4 -12 -3 -15 5 -10 19 12 14 -9 -7 -28 -18
-17 -19 -16 -26 12 -6 30 3 56 34 95 20 24 24 21 17 -13z m25 3 c-8 -15 -10
-15 -11 -2 0 17 10 32 18 25 2 -3 -1 -13 -7 -23z m-1827 2 c17 24 46 13 46
-18 0 -26 9 -31 98 -57 49 -15 62 -9 33 17 -26 22 -27 43 -2 43 10 0 75 -18
144 -40 68 -22 132 -40 140 -40 21 0 109 -29 120 -40 9 -8 -1 -7 -133 15 -47
8 -105 17 -130 20 -43 6 -44 5 -23 -10 12 -9 48 -24 79 -34 35 -11 52 -21 45
-25 -7 -4 -19 -5 -28 -2 -8 4 -22 1 -29 -5 -14 -12 -10 -13 -184 51 -47 17
-131 46 -188 64 -97 32 -132 49 -132 66 0 4 29 0 65 -8 62 -15 66 -15 79 3z
m3296 7 c0 -24 -93 -102 -107 -89 -3 4 -2 22 1 42 8 39 31 54 78 52 16 -1 28
-3 28 -5z m-3160 -32 c-12 -22 -35 -26 -46 -9 -8 13 13 29 39 29 15 0 16 -3 7
-20z m375 -28 c55 -16 113 -32 129 -36 17 -4 25 -11 20 -16 -14 -14 -263 57
-289 83 -12 12 8 7 140 -31z m-1194 -49 c-10 -17 -10 -16 -11 3 0 23 13 41 18
25 2 -6 -1 -18 -7 -28z m3843 18 c3 -5 -1 -11 -9 -15 -9 -3 -15 0 -15 9 0 16
16 20 24 6z m-1439 -31 c3 -5 1 -10 -4 -10 -6 0 -11 5 -11 10 0 6 2 10 4 10 3
0 8 -4 11 -10z m45 -14 c0 -3 -4 -8 -10 -11 -5 -3 -10 -1 -10 4 0 6 5 11 10
11 6 0 10 -2 10 -4z m-106 -13 c4 -5 16 -8 27 -8 10 0 18 -4 16 -10 -2 -11
-30 -11 -64 0 -16 5 -23 3 -23 -5 0 -7 -35 -48 -77 -92 -58 -59 -95 -88 -142
-110 -72 -33 -83 -28 -70 30 8 37 35 66 50 56 5 -3 9 3 9 12 0 26 30 54 57 54
12 0 23 6 23 13 0 33 169 85 194 60z m26 -58 c0 -16 16 -20 24 -6 8 12 46 2
46 -11 0 -6 -7 -8 -14 -5 -10 4 -13 1 -10 -7 4 -11 -52 -63 -131 -121 -15 -11
-31 -30 -36 -43 -5 -12 -23 -29 -41 -36 -30 -13 -33 -12 -57 16 l-25 30 60 54
c32 29 73 64 91 76 18 12 37 33 42 45 12 26 51 32 51 8z m-550 -5 c12 -8 12
-10 -5 -9 -11 0 -29 4 -40 9 -18 8 -18 9 5 9 14 0 32 -4 40 -9z m63 3 c-7 -2
-19 -2 -25 0 -7 3 -2 5 12 5 14 0 19 -2 13 -5z m-703 -18 c-43 -17 -50 -17
-50 -6 0 10 28 18 65 19 12 0 5 -5 -15 -13z m-85 -15 c3 -5 -1 -10 -9 -10 -9
0 -16 5 -16 10 0 6 4 10 9 10 6 0 13 -4 16 -10z m1409 -61 c4 -18 1 -29 -8
-32 -7 -3 -19 -26 -27 -51 -13 -45 -15 -46 -49 -44 -19 1 -56 -7 -82 -16 -27
-11 -55 -15 -65 -11 -15 6 -15 8 -3 13 38 13 133 87 171 132 44 52 52 53 63 9z
m155 -25 c-12 -13 -28 -24 -36 -24 -17 0 -16 5 2 34 11 16 22 22 36 19 20 -6
20 -6 -2 -29z m-666 5 c-3 -11 -12 -23 -19 -26 -10 -4 -11 -9 -1 -23 12 -21 5
-36 -12 -25 -18 10 -13 50 9 73 26 27 30 28 23 1z m397 -12 c0 -2 -12 -14 -27
-28 l-28 -24 24 28 c23 25 31 32 31 24z m-1605 -50 c-16 -12 -57 -49 -91 -82
-73 -73 -110 -102 -74 -60 69 82 163 166 184 164 6 0 -2 -10 -19 -22z m-866
-36 c8 -11 19 -17 26 -15 7 3 2 -24 -12 -70 -21 -64 -29 -76 -56 -87 -18 -8
-42 -24 -54 -38 -21 -22 -23 -22 -24 -5 0 15 -3 13 -13 -8 -6 -15 -20 -35 -29
-45 -25 -26 -75 -92 -80 -106 -2 -7 -7 -9 -11 -6 -3 3 10 42 30 85 56 123 68
145 84 157 12 10 12 8 -1 -13 -18 -29 -30 -70 -20 -70 4 0 15 23 26 50 11 28
23 50 28 50 4 0 5 -4 2 -10 -3 -5 -1 -10 4 -10 6 0 11 6 11 12 0 25 54 148 64
148 7 0 18 -9 25 -19z m2195 -2 c-3 -5 -10 -7 -15 -3 -5 3 -7 10 -3 15 3 5 10
7 15 3 5 -3 7 -10 3 -15z m-2263 -20 c-9 -22 -10 -22 -10 -3 -1 11 2 24 6 27
12 12 14 0 4 -24z m2250 -9 c10 -6 19 -17 19 -25 0 -22 -28 -18 -40 4 -17 33
-12 38 21 21z m-1463 -29 c-30 -38 -54 -50 -32 -15 14 21 40 43 52 44 2 0 -7
-13 -20 -29z m-805 -11 c-3 -12 -8 -19 -11 -16 -5 6 5 36 12 36 2 0 2 -9 -1
-20z m2553 -15 c-26 -20 -113 -52 -162 -60 -58 -9 -21 11 84 45 101 34 103 34
78 15z m394 -14 c0 -6 -4 -13 -10 -16 -5 -3 -10 1 -10 9 0 9 5 16 10 16 6 0
10 -4 10 -9z m-416 -87 c0 -21 -6 -68 -12 -104 -6 -36 -13 -83 -16 -105 -11
-99 -54 -221 -71 -204 -3 3 1 25 9 50 23 72 51 241 61 369 4 44 3 42 18 37 7
-2 12 -20 11 -43z m-44 19 c0 -98 -59 -394 -85 -430 -26 -35 -26 -3 -1 109 13
62 33 164 43 226 12 74 22 112 30 112 7 0 13 -8 13 -17z m-145 -3 c-3 -5 -10
-10 -16 -10 -5 0 -9 5 -9 10 0 6 7 10 16 10 8 0 12 -4 9 -10z m95 -1 c0 -5
-10 -9 -22 -7 -19 3 -22 -2 -24 -42 -4 -66 -37 -183 -53 -188 -11 -4 -13 4 -7
39 4 24 11 58 16 74 5 17 12 51 15 77 6 47 13 54 58 57 9 0 17 -4 17 -10z
m150 1 c0 -5 -4 -10 -10 -10 -5 0 -10 5 -10 10 0 6 5 10 10 10 6 0 10 -4 10
-10z m-251 -51 c4 -32 -28 -170 -45 -194 -22 -29 -26 -12 -10 46 7 30 17 82
21 117 7 63 26 81 34 31z m95 -10 c-2 -44 -31 -186 -55 -271 -10 -36 -19 -75
-19 -86 0 -20 -28 -57 -37 -48 -2 2 5 41 16 85 52 202 60 240 67 299 7 66 30
84 28 21z m246 -45 c0 -8 -5 -12 -10 -9 -6 4 -8 11 -5 16 9 14 15 11 15 -7z
m-2763 -352 c-8 -9 -17 -24 -20 -32 -5 -13 -6 -12 -6 1 -1 9 6 22 14 29 8 7
15 20 16 29 0 11 2 12 6 3 3 -7 -2 -21 -10 -30z m2498 -2 c-27 -11 -57 -12
-51 -2 3 5 20 9 38 9 27 1 29 -1 13 -7z m-2545 -54 c0 -3 -4 -8 -10 -11 -5 -3
-10 -1 -10 4 0 6 5 11 10 11 6 0 10 -2 10 -4z"/>
<path d="M2280 6019 c-63 -21 -125 -39 -137 -39 -13 0 -23 -4 -23 -10 0 -5 -6
-10 -14 -10 -14 0 -85 -37 -96 -50 -3 -3 -27 -22 -55 -41 -51 -34 -77 -60 -69
-68 2 -3 12 3 22 12 37 36 79 64 132 89 30 14 82 38 115 53 33 16 112 45 175
66 63 21 104 38 90 38 -14 0 -77 -18 -140 -40z"/>
<path d="M1800 5744 c-17 -20 -29 -38 -26 -41 5 -5 65 58 66 70 0 13 -8 7 -40
-29z"/>
<path d="M1587 5308 c-42 -53 -59 -84 -23 -43 37 42 68 85 62 85 -2 0 -20 -19
-39 -42z"/>
<path d="M1421 5247 c2 -1 13 -9 24 -17 19 -14 19 -14 6 3 -7 9 -18 17 -24 17
-6 0 -8 -1 -6 -3z"/>
<path d="M1481 5214 c0 -11 3 -14 6 -6 3 7 2 16 -1 19 -3 4 -6 -2 -5 -13z"/>
<path d="M1502 5187 c-19 -36 -22 -39 -22 -17 0 24 -1 24 -14 -5 -16 -34 -36
-94 -36 -106 0 -5 7 -9 15 -9 9 0 15 9 15 25 0 14 5 24 11 23 7 -2 15 9 19 23
4 14 15 42 25 62 25 53 13 56 -13 4z"/>
<path d="M1407 5213 c-4 -3 -7 -13 -7 -22 1 -13 3 -13 11 2 11 19 8 33 -4 20z"/>
<path d="M1404 4983 c-4 -21 -8 -44 -7 -50 0 -7 -3 -11 -7 -8 -8 5 -22 -30
-35 -90 -3 -16 -13 -41 -22 -53 -16 -25 -28 -152 -15 -152 11 0 155 149 174
180 24 40 17 134 -12 165 -13 14 -30 23 -37 21 -7 -3 -12 0 -10 6 1 6 -3 12
-9 15 -7 2 -15 -13 -20 -34z"/>
<path d="M1260 4905 c0 -8 4 -15 10 -15 5 0 7 7 4 15 -4 8 -8 15 -10 15 -2 0
-4 -7 -4 -15z"/>
<path d="M1245 4813 c-3 -32 -10 -82 -15 -112 -13 -71 -13 -144 0 -136 6 3 10
27 10 53 0 43 11 138 25 220 3 18 2 32 -4 32 -5 0 -12 -26 -16 -57z"/>
<path d="M1220 4539 c0 -5 5 -7 10 -4 6 3 10 8 10 11 0 2 -4 4 -10 4 -5 0 -10
-5 -10 -11z"/>
<path d="M2418 5748 c4 -58 22 -92 22 -41 0 40 -11 93 -19 93 -3 0 -4 -24 -3
-52z"/>
<path d="M2542 5755 c0 -16 2 -22 5 -12 2 9 2 23 0 30 -3 6 -5 -1 -5 -18z"/>
<path d="M2425 5628 c3 -18 12 -69 20 -113 16 -101 19 -62 3 56 -6 49 -15 89
-20 89 -5 0 -6 -15 -3 -32z"/>
<path d="M3061 5514 c0 -11 3 -14 6 -6 3 7 2 16 -1 19 -3 4 -6 -2 -5 -13z"/>
<path d="M2461 5394 c0 -11 3 -14 6 -6 3 7 2 16 -1 19 -3 4 -6 -2 -5 -13z"/>
<path d="M2471 5324 c0 -11 3 -14 6 -6 3 7 2 16 -1 19 -3 4 -6 -2 -5 -13z"/>
<path d="M2838 5163 c7 -3 16 -2 19 1 4 3 -2 6 -13 5 -11 0 -14 -3 -6 -6z"/>
<path d="M3928 5778 c5 -5 16 -8 23 -6 8 3 3 7 -10 11 -17 4 -21 3 -13 -5z"/>
<path d="M3959 5687 c-11 -8 -17 -36 -21 -93 l-6 -82 52 -10 c28 -6 53 -9 54
-7 2 2 -1 18 -7 37 -5 18 -18 63 -27 101 -9 37 -20 67 -23 67 -3 0 -13 -6 -22
-13z"/>
<path d="M4131 5484 c0 -11 3 -14 6 -6 3 7 2 16 -1 19 -3 4 -6 -2 -5 -13z"/>
<path d="M4154 5413 c3 -10 12 -44 21 -76 9 -32 19 -56 22 -53 6 5 -36 146
-44 146 -2 0 -2 -8 1 -17z"/>
<path d="M4200 5260 c0 -8 5 -22 10 -30 9 -13 10 -13 10 0 0 8 -5 22 -10 30
-9 13 -10 13 -10 0z"/>
<path d="M2334 5278 l-19 -23 25 20 c14 11 27 21 29 22 2 2 0 3 -6 3 -5 0 -18
-10 -29 -22z"/>
<path d="M4170 4860 c0 -5 7 -7 15 -4 8 4 15 8 15 10 0 2 -7 4 -15 4 -8 0 -15
-4 -15 -10z"/>
<path d="M964 4211 c0 -11 5 -17 13 -14 10 4 11 9 2 19 -15 18 -15 18 -15 -5z"/>
<path d="M1155 3790 c3 -5 10 -10 16 -10 5 0 9 5 9 10 0 6 -7 10 -16 10 -8 0
-12 -4 -9 -10z"/>
<path d="M2082 3610 c0 -14 2 -19 5 -12 2 6 2 18 0 25 -3 6 -5 1 -5 -13z"/>
<path d="M2100 3495 c0 -2 10 -10 23 -16 20 -11 21 -11 8 4 -13 16 -31 23 -31
12z"/>
<path d="M3148 3993 c12 -2 30 -2 40 0 9 3 -1 5 -23 4 -22 0 -30 -2 -17 -4z"/>
<path d="M6120 3826 c0 -2 8 -10 18 -17 15 -13 16 -12 3 4 -13 16 -21 21 -21
13z"/>
<path d="M6161 3771 c7 -14 9 -45 6 -75 -3 -32 -2 -44 3 -31 14 33 11 90 -6
111 -14 18 -14 18 -3 -5z"/>
<path d="M5570 3584 c-24 -62 3 -114 59 -114 11 0 22 -4 25 -9 3 -4 38 -9 79
-9 62 -1 75 2 85 19 10 16 9 19 -3 19 -8 0 -14 5 -12 11 1 6 -19 23 -46 38
-26 14 -54 36 -63 49 -12 18 -25 22 -65 22 -44 0 -51 -3 -59 -26z"/>
<path d="M5850 3530 c0 -5 5 -10 10 -10 6 0 10 5 10 10 0 6 -4 10 -10 10 -5 0
-10 -4 -10 -10z"/>
<path d="M5489 3455 c16 -30 40 -59 45 -54 3 2 -9 20 -25 39 -17 19 -26 26
-20 15z"/>
<path d="M5836 3461 c-4 -5 -2 -12 3 -15 5 -4 12 -2 15 3 4 5 2 12 -3 15 -5 4
-12 2 -15 -3z"/>
<path d="M2647 3489 c7 -7 15 -10 18 -7 3 3 -2 9 -12 12 -14 6 -15 5 -6 -5z"/>
<path d="M4137 3314 c-13 -13 -7 -22 18 -26 13 -3 22 -1 19 3 -7 12 13 11 53
0 25 -7 31 -6 27 4 -3 7 -15 13 -27 13 -12 -1 -36 2 -52 6 -17 4 -33 4 -38 0z"/>
<path d="M3038 2914 c-5 -4 -8 -16 -8 -26 0 -19 31 -25 64 -12 27 11 17 24
-13 18 -22 -5 -30 -2 -33 11 -1 9 -6 13 -10 9z"/>
<path d="M2578 2853 c-25 -6 -22 -18 7 -37 23 -15 55 -22 55 -11 0 10 -32 55
-39 54 -3 -1 -14 -3 -23 -6z"/>
<path d="M3090 2851 c0 -5 -10 -13 -22 -16 -51 -15 -107 -49 -111 -67 -4 -15
-11 -18 -26 -13 -15 4 -21 2 -21 -9 0 -23 20 -30 39 -12 30 27 57 16 29 -12
-10 -10 -7 -12 12 -10 19 2 24 -1 22 -14 -2 -14 4 -18 28 -18 24 0 30 -4 30
-22 0 -22 4 -23 66 -23 61 0 68 2 90 30 28 35 32 80 8 89 -12 5 -15 16 -12 46
2 22 2 40 0 40 -2 0 -13 -11 -24 -25 -17 -21 -23 -24 -35 -13 -8 7 -19 22 -24
35 -8 22 -49 34 -49 14z"/>
<path d="M3860 2814 c-52 -30 -55 -32 -48 -39 3 -4 21 4 41 17 19 13 43 28 53
35 37 23 -2 12 -46 -13z"/>
<path d="M3880 3395 c-7 -8 -8 -15 -2 -15 5 0 15 7 22 15 7 8 8 15 2 15 -5 0
-15 -7 -22 -15z"/>
<path d="M3892 3370 c-14 -23 -10 -25 19 -9 11 5 17 14 14 20 -9 14 -19 11
-33 -11z"/>
<path d="M3829 3293 c-13 -16 -12 -17 4 -4 9 7 17 15 17 17 0 8 -8 3 -21 -13z"/>
<path d="M5380 3285 c0 -9 6 -12 15 -9 8 4 15 7 15 9 0 2 -7 5 -15 9 -9 3 -15
0 -15 -9z"/>
<path d="M5434 3266 c11 -9 24 -16 30 -16 12 0 7 5 -24 19 -24 11 -24 11 -6
-3z"/>
<path d="M5743 3183 c9 -2 23 -2 30 0 6 3 -1 5 -18 5 -16 0 -22 -2 -12 -5z"/>
<path d="M5215 3099 c-4 -12 -1 -27 8 -37 8 -9 17 -26 18 -37 4 -23 80 -65
117 -65 13 0 31 7 39 16 15 14 15 18 0 44 -10 15 -17 34 -17 40 0 7 -11 23
-26 36 -20 19 -36 24 -79 24 -45 0 -55 -3 -60 -21z"/>
<path d="M5450 2951 c0 -24 13 -39 27 -34 11 4 14 2 9 -5 -9 -14 3 -15 24 -2
12 7 12 13 4 27 -12 19 -64 31 -64 14z"/>
<path d="M5517 2883 c-4 -3 -7 -11 -7 -17 0 -6 5 -5 12 2 6 6 9 14 7 17 -3 3
-9 2 -12 -2z"/>
<path d="M5860 2838 c0 -7 -17 -30 -37 -51 -25 -26 -30 -36 -16 -28 32 16 89
91 69 91 -9 0 -16 -5 -16 -12z"/>
<path d="M4471 2504 c0 -11 3 -14 6 -6 3 7 2 16 -1 19 -3 4 -6 -2 -5 -13z"/>
<path d="M4527 2457 c-11 -29 -9 -43 4 -30 6 6 9 19 7 29 -3 18 -4 18 -11 1z"/>
<path d="M5620 2559 c0 -5 5 -7 10 -4 6 3 10 8 10 11 0 2 -4 4 -10 4 -5 0 -10
-5 -10 -11z"/>
<path d="M1495 1979 c-4 -6 -5 -12 -2 -15 2 -3 7 2 10 11 7 17 1 20 -8 4z"/>
<path d="M6251 7210 c-1 -31 48 -93 91 -114 49 -25 47 -18 -4 14 -47 29 -64
51 -79 99 l-7 26 -1 -25z"/>
<path d="M6300 7201 c0 -6 4 -13 10 -16 6 -3 7 1 4 9 -7 18 -14 21 -14 7z"/>
<path d="M6400 7070 c8 -5 24 -9 35 -9 l20 0 -20 9 c-11 5 -27 9 -35 9 -13 1
-13 0 0 -9z"/>
<path d="M6145 6970 c3 -5 16 -15 28 -21 22 -12 22 -12 3 10 -19 21 -43 30
-31 11z"/>
<path d="M6217 6909 c7 -7 15 -10 18 -7 3 3 -2 9 -12 12 -14 6 -15 5 -6 -5z"/>
<path d="M6827 6803 c-9 -27 -19 -66 -23 -88 -4 -22 -13 -50 -21 -62 -8 -12
-21 -57 -28 -100 -8 -43 -24 -105 -35 -138 -12 -33 -31 -94 -41 -135 -11 -41
-24 -91 -29 -110 -15 -59 -3 -45 15 17 10 32 21 67 25 78 4 11 26 81 49 155
23 74 51 164 63 200 36 116 57 195 58 213 0 33 -18 17 -33 -30z"/>
<path d="M5893 6808 c-5 -7 -7 -24 -3 -38 6 -23 7 -21 11 13 6 41 5 42 -8 25z"/>
<path d="M5880 6725 c0 -8 2 -15 4 -15 2 0 6 7 10 15 3 8 1 15 -4 15 -6 0 -10
-7 -10 -15z"/>
<path d="M5971 6714 c0 -11 3 -14 6 -6 3 7 2 16 -1 19 -3 4 -6 -2 -5 -13z"/>
<path d="M5797 6223 c-4 -3 -7 -13 -7 -22 1 -13 3 -13 11 2 11 19 8 33 -4 20z"/>
<path d="M5786 6128 c-8 -71 -8 -108 2 -108 4 0 7 15 7 33 1 17 5 53 9 80 5
29 5 47 -1 47 -6 0 -13 -24 -17 -52z"/>
<path d="M3468 6103 c7 -3 16 -2 19 1 4 3 -2 6 -13 5 -11 0 -14 -3 -6 -6z"/>
<path d="M3508 6093 c7 -3 16 -2 19 1 4 3 -2 6 -13 5 -11 0 -14 -3 -6 -6z"/>
<path d="M3660 6050 c8 -5 20 -10 25 -10 6 0 3 5 -5 10 -8 5 -19 10 -25 10 -5
0 -3 -5 5 -10z"/>
<path d="M3711 6024 c13 -16 29 -19 29 -5 0 5 -9 11 -21 14 -16 4 -18 3 -8 -9z"/>
<path d="M6600 6025 c0 -8 2 -15 4 -15 2 0 6 7 10 15 3 8 1 15 -4 15 -6 0 -10
-7 -10 -15z"/>
<path d="M6633 5905 c-6 -19 -8 -37 -3 -40 7 -4 23 65 16 72 -1 2 -7 -13 -13
-32z"/>
<path d="M4020 5830 c20 -13 33 -13 25 0 -3 6 -14 10 -23 10 -15 0 -15 -2 -2
-10z"/>
<path d="M6606 5818 c-13 -40 -16 -72 -8 -63 10 11 24 75 16 75 -2 0 -6 -6 -8
-12z"/>
<path d="M6571 5714 c0 -11 3 -14 6 -6 3 7 2 16 -1 19 -3 4 -6 -2 -5 -13z"/>
<path d="M6647 5568 c-10 -33 -16 -62 -14 -64 2 -2 12 23 22 56 10 33 16 62
14 64 -2 3 -12 -23 -22 -56z"/>
<path d="M5751 5284 c0 -11 3 -14 6 -6 3 7 2 16 -1 19 -3 4 -6 -2 -5 -13z"/>
<path d="M5698 4829 c-3 -82 -2 -166 2 -186 6 -31 8 -23 9 40 1 49 5 77 12 77
7 0 8 7 4 18 -11 26 -15 183 -4 176 5 -3 9 -1 9 4 0 6 -6 12 -14 15 -11 4 -14
-23 -18 -144z"/>
<path d="M750 4655 c7 -9 15 -13 17 -11 7 7 -7 26 -19 26 -6 0 -6 -6 2 -15z"/>
<path d="M6271 4609 c-6 -18 -9 -34 -7 -36 2 -2 9 10 15 28 6 18 9 34 7 36 -2
2 -9 -10 -15 -28z"/>
<path d="M789 4604 c12 -15 21 -32 21 -39 0 -7 13 -23 30 -36 16 -13 30 -29
30 -35 0 -15 120 -144 134 -144 6 0 -9 20 -33 44 -28 28 -41 49 -36 57 5 7 4
10 -1 6 -5 -3 -18 1 -29 9 -10 8 -13 14 -6 14 7 0 9 5 6 10 -4 6 -11 8 -16 5
-5 -4 -9 -1 -9 5 0 13 -92 128 -103 129 -5 1 1 -11 12 -25z"/>
<path d="M1040 4316 c0 -2 7 -9 15 -16 9 -7 15 -8 15 -2 0 5 -7 12 -15 16 -8
3 -15 4 -15 2z"/>
<path d="M460 4020 c0 -5 5 -10 10 -10 6 0 10 5 10 10 0 6 -4 10 -10 10 -5 0
-10 -4 -10 -10z"/>
<path d="M712 3444 c10 -10 20 -15 24 -12 3 4 -5 12 -18 18 -22 12 -22 12 -6
-6z"/>
<path d="M6178 3389 c-14 -27 -20 -45 -11 -38 18 16 56 89 46 89 -5 0 -20 -23
-35 -51z"/>
<path d="M506 3201 c10 -11 114 -51 114 -45 0 5 -109 54 -118 54 -3 0 -2 -4 4
-9z"/>
<path d="M5890 2653 c-19 -26 -63 -68 -98 -95 -74 -56 -73 -63 2 -13 50 33
100 86 125 133 18 34 9 27 -29 -25z"/>
<path d="M1318 2549 c-21 -5 -73 -13 -115 -17 l-78 -9 60 -1 c75 -1 152 11
167 26 7 7 10 12 8 11 -3 -1 -22 -5 -42 -10z"/>
<path d="M1010 2530 c14 -9 88 -15 79 -6 -2 2 -24 7 -49 10 -32 5 -41 4 -30
-4z"/>
<path d="M1138 2503 c7 -3 16 -2 19 1 4 3 -2 6 -13 5 -11 0 -14 -3 -6 -6z"/>
<path d="M1198 2493 c18 -2 45 -2 60 0 15 2 0 4 -33 4 -33 0 -45 -2 -27 -4z"/>
<path d="M3030 2290 c-9 -6 -10 -10 -3 -10 6 0 15 5 18 10 8 12 4 12 -15 0z"/>
<path d="M3430 2293 c0 -7 27 -29 54 -44 18 -11 18 -10 0 14 -17 23 -54 43
-54 30z"/>
<path d="M3138 2143 c-10 -2 -18 -11 -18 -20 0 -14 2 -14 23 0 13 8 32 17 42
20 16 4 14 5 -5 5 -14 0 -33 -2 -42 -5z"/>
<path d="M3183 2100 c-13 -5 -23 -12 -23 -15 0 -9 16 -5 36 10 22 16 19 18
-13 5z"/>
<path d="M3195 2070 c-3 -5 -2 -10 4 -10 5 0 13 5 16 10 3 6 2 10 -4 10 -5 0
-13 -4 -16 -10z"/>
<path d="M2590 2060 c-8 -5 -11 -12 -8 -16 4 -3 14 1 23 10 18 17 9 21 -15 6z"/>
<path d="M2840 2020 c0 -5 -7 -7 -15 -4 -8 4 -15 1 -15 -5 0 -16 -61 -45 -69
-32 -12 20 -111 -26 -111 -51 0 -5 -10 -19 -22 -30 -18 -15 -19 -18 -5 -14 9
3 17 1 17 -4 0 -5 -11 -12 -25 -15 -14 -3 -36 -7 -50 -10 -14 -3 -25 -10 -25
-15 0 -13 16 -13 42 1 38 20 28 2 -14 -26 -24 -16 -37 -30 -31 -32 7 -3 23 3
35 11 33 23 51 21 38 -4 -7 -13 -21 -20 -41 -20 -35 0 -36 -23 -1 -28 18 -3
22 -10 22 -37 0 -38 -14 -52 -34 -36 -10 8 -17 7 -27 -6 -9 -11 -10 -14 -1 -9
6 4 12 3 12 -3 0 -5 -6 -12 -12 -14 -8 -3 -6 -6 5 -6 28 -2 19 -16 -10 -16
-41 0 -34 -20 7 -21 51 -2 54 -3 41 -18 -9 -10 -8 -15 4 -20 8 -3 15 -1 15 5
0 6 8 9 18 8 56 -5 64 -1 60 39 -4 32 0 40 27 59 20 13 50 22 81 24 54 3 88
15 79 29 -3 5 3 13 13 19 35 18 82 65 82 81 -1 12 -5 10 -18 -5 -19 -23 -62
-31 -62 -11 0 8 7 19 15 26 8 7 15 19 15 27 0 7 7 16 15 19 8 3 17 14 20 25 4
10 11 19 16 19 6 0 8 -9 4 -19 -4 -15 -1 -19 12 -17 10 2 21 -1 24 -7 4 -5 12
7 19 27 14 44 9 54 -16 29 -17 -17 -18 -17 -10 2 20 52 -2 58 -38 10 -25 -32
-46 -39 -46 -14 0 6 4 8 9 5 10 -6 30 63 23 82 -5 16 -20 16 -19 0 1 -34 -5
-48 -24 -58 -27 -15 -38 -4 -14 14 15 11 17 17 7 28 -6 8 -9 18 -5 21 3 4 1 7
-5 7 -7 0 -12 -4 -12 -10z m-30 -65 c0 -9 -6 -12 -16 -8 -13 5 -13 7 -2 14 17
11 18 11 18 -6z m-250 -325 c0 -5 -2 -10 -4 -10 -3 0 -8 5 -11 10 -3 6 -1 10
4 10 6 0 11 -4 11 -10z"/>
<path d="M2755 2000 c-3 -5 -1 -10 4 -10 6 0 11 5 11 10 0 6 -2 10 -4 10 -3 0
-8 -4 -11 -10z"/>
<path d="M2605 1969 c-28 -27 -29 -29 -8 -29 12 0 29 10 38 23 8 12 18 21 20
20 3 -2 11 -3 18 -2 6 0 3 4 -8 9 -28 12 -27 12 -60 -21z"/>
<path d="M2130 1915 c-7 -9 -11 -17 -9 -20 3 -2 10 5 17 15 14 24 10 26 -8 5z"/>
<path d="M3279 1827 c-41 -39 -108 -102 -148 -139 -40 -38 -70 -68 -65 -68 4
0 16 7 26 17 23 21 35 11 17 -15 -30 -41 -261 -227 -369 -296 -41 -27 -88 -60
-105 -74 -68 -56 -106 -94 -101 -99 3 -3 31 18 63 46 32 29 83 66 113 84 30
17 60 35 65 39 6 5 37 25 70 46 33 21 86 55 118 76 33 22 67 36 80 34 19 -3
15 -8 -28 -38 -27 -18 -63 -47 -78 -62 -16 -15 -60 -46 -97 -68 -38 -22 -75
-48 -82 -58 -7 -9 -29 -25 -48 -35 -59 -29 -146 -87 -132 -87 14 0 197 95 222
115 8 6 38 23 66 38 50 25 104 59 154 94 13 10 49 34 80 53 81 52 151 105 184
140 15 17 42 38 60 46 17 9 42 27 56 40 134 128 200 194 200 199 0 3 -4 4 -9
1 -5 -3 -20 5 -35 19 -21 20 -31 22 -53 15 -16 -5 -54 -16 -86 -25 -46 -12
-70 -27 -115 -71 -56 -55 -90 -80 -98 -71 -2 2 35 43 83 90 49 48 84 87 78 87
-5 0 -44 -33 -86 -73z m270 18 c-5 -4 -63 -18 -134 -31 -16 -3 1 7 39 20 38
14 72 28 74 31 3 3 10 1 16 -5 5 -5 7 -12 5 -15z m-44 -44 c-16 -14 -65 -22
-65 -11 0 6 3 9 8 7 4 -3 16 -1 27 4 28 11 41 11 30 0z m-315 -100 c0 -12 -59
-55 -66 -48 -6 6 47 57 58 57 5 0 8 -4 8 -9z m140 -30 c-26 -14 -70 -22 -70
-12 0 11 23 18 60 20 18 0 21 -2 10 -8z m-100 -15 c0 -2 -9 -6 -20 -9 -11 -3
-18 -1 -14 4 5 9 34 13 34 5z m-70 -40 c0 -2 -7 -7 -16 -10 -8 -3 -12 -2 -9 4
6 10 25 14 25 6z m130 -6 c0 -5 -5 -10 -11 -10 -5 0 -7 5 -4 10 3 6 8 10 11
10 2 0 4 -4 4 -10z m-55 -9 c-6 -5 -26 -12 -45 -15 l-35 -6 30 15 c34 16 64
20 50 6z m-25 -57 c-17 -15 -33 -24 -36 -21 -6 6 45 47 58 47 5 0 -5 -12 -22
-26z m-94 -25 c-43 -21 -83 -15 -42 6 31 17 58 23 70 17 5 -3 -8 -13 -28 -23z
m44 -14 c0 -2 -26 -22 -57 -43 -81 -54 -88 -58 -78 -43 6 11 122 91 132 91 1
0 3 -2 3 -5z"/>
<path d="M2117 1843 c-4 -3 -7 -11 -7 -17 0 -6 5 -5 12 2 6 6 9 14 7 17 -3 3
-9 2 -12 -2z"/>
<path d="M2085 1780 c-8 -16 -15 -35 -15 -42 0 -13 19 20 33 55 10 28 -1 20
-18 -13z"/>
<path d="M2156 1728 c-32 -70 -46 -111 -45 -132 0 -12 6 -3 14 22 7 23 23 63
35 88 11 26 19 48 16 51 -2 3 -11 -10 -20 -29z"/>
<path d="M3349 1603 c-13 -15 -12 -15 9 -4 23 12 28 21 13 21 -5 0 -15 -7 -22
-17z"/>
<path d="M2101 1554 c0 -11 3 -14 6 -6 3 7 2 16 -1 19 -3 4 -6 -2 -5 -13z"/>
<path d="M2410 1500 c0 -5 5 -10 10 -10 6 0 10 5 10 10 0 6 -4 10 -10 10 -5 0
-10 -4 -10 -10z"/>
<path d="M3595 1440 c-3 -5 -1 -10 4 -10 6 0 11 5 11 10 0 6 -2 10 -4 10 -3 0
-8 -4 -11 -10z"/>
<path d="M2508 1424 c-16 -8 -28 -19 -28 -24 0 -16 13 -12 45 15 33 27 25 32
-17 9z"/>
<path d="M3555 1420 c-3 -5 -2 -10 4 -10 5 0 13 5 16 10 3 6 2 10 -4 10 -5 0
-13 -4 -16 -10z"/>
<path d="M3410 1400 c-8 -5 -10 -10 -5 -10 6 0 17 5 25 10 8 5 11 10 5 10 -5
0 -17 -5 -25 -10z"/>
<path d="M3454 1372 c-70 -37 -107 -54 -279 -130 -149 -66 -288 -119 -414
-158 -8 -3 -12 -7 -9 -9 5 -5 146 39 273 85 33 12 96 39 140 59 44 21 90 41
103 45 38 13 260 125 267 136 10 16 -6 11 -81 -28z"/>
<path d="M3272 1339 c-56 -24 -559 -193 -637 -213 -33 -9 -73 -17 -89 -18 -16
-2 -31 -8 -33 -15 -3 -9 4 -10 28 -3 17 5 35 7 40 5 4 -3 18 -1 31 4 24 9 102
32 178 51 25 7 65 21 90 33 25 11 61 24 80 28 30 6 80 22 155 49 27 10 209 92
214 96 10 9 -17 1 -57 -17z"/>
<path d="M4051 1274 c0 -11 3 -14 6 -6 3 7 2 16 -1 19 -3 4 -6 -2 -5 -13z"/>
<path d="M3570 1130 c0 -5 5 -10 11 -10 5 0 7 5 4 10 -3 6 -8 10 -11 10 -2 0
-4 -4 -4 -10z"/>
<path d="M3770 1006 c37 -20 70 -29 70 -18 0 5 -17 14 -39 20 -50 16 -62 15
-31 -2z"/>
<path d="M3130 980 c-13 -8 -12 -10 3 -10 9 0 17 5 17 10 0 12 -1 12 -20 0z"/>
<path d="M2975 940 c-13 -5 -14 -9 -5 -9 8 0 24 4 35 9 13 5 14 9 5 9 -8 0
-24 -4 -35 -9z"/>
<path d="M3735 923 c-38 -8 -74 -19 -79 -24 -14 -13 -4 -11 104 16 104 26 87
32 -25 8z"/>
<path d="M3880 835 c-8 -9 -8 -15 -2 -15 12 0 26 19 19 26 -2 2 -10 -2 -17
-11z"/>
<path d="M3673 773 c-18 -6 -16 -23 1 -23 17 0 30 16 19 23 -5 2 -14 2 -20 0z"/>
<path d="M3765 720 c-3 -5 -2 -10 4 -10 5 0 13 5 16 10 3 6 2 10 -4 10 -5 0
-13 -4 -16 -10z"/>
<path d="M3566 684 c-11 -8 -16 -14 -10 -14 13 0 39 18 34 24 -3 2 -14 -2 -24
-10z"/>
</g>
</svg>
